<?xml version="1.0" standalone="no"?>
<!DOCTYPE svg PUBLIC "-//W3C//DTD SVG 20010904//EN"
 "http://www.w3.org/TR/2001/REC-SVG-20010904/DTD/svg10.dtd">
<svg version="1.0" xmlns="http://www.w3.org/2000/svg"
 width="252.000000pt" height="252.000000pt" viewBox="0 0 252.000000 252.000000"
 preserveAspectRatio="xMidYMid meet">
<metadata>
Created by potrace 1.14, written by Peter Selinger 2001-2017
</metadata>
<g transform="translate(0.000000,252.000000) scale(0.100000,-0.100000)"
fill="#000000" stroke="none">
<path d="M1528 2263 c39 -39 50 -58 54 -89 l3 -39 -50 50 c-37 38 -65 56 -110
70 -75 25 -187 26 -230 2 l-30 -16 63 -1 c67 0 137 -25 163 -56 13 -16 12 -17
-6 -10 -119 45 -280 21 -395 -59 -34 -24 -37 -24 -85 -9 -58 17 -149 20 -185
5 -19 -7 -9 -9 45 -6 61 4 64 3 25 -4 -72 -14 -142 -40 -184 -69 -43 -29 -120
-125 -114 -142 1 -5 19 11 38 37 49 65 150 114 231 112 l34 -1 -35 -9 c-125
-34 -230 -135 -293 -282 -27 -63 -32 -86 -35 -186 -3 -72 -1 -111 5 -108 6 4
13 32 16 63 10 96 101 249 171 286 14 8 9 -2 -16 -30 -47 -52 -84 -125 -105
-205 -31 -123 7 -310 86 -426 22 -31 42 -72 45 -91 4 -19 19 -60 35 -90 50
-98 183 -180 243 -149 14 7 21 3 32 -20 8 -15 38 -49 66 -74 46 -42 50 -48 50
-91 0 -25 -4 -47 -10 -47 -5 -1 -14 -3 -20 -4 -5 -1 -17 -3 -26 -4 -9 0 -40
-27 -70 -60 -69 -74 -153 -120 -209 -114 -27 3 -52 -2 -78 -16 -34 -17 -45
-18 -92 -8 -50 10 -56 9 -117 -20 -34 -17 -85 -34 -113 -38 -56 -8 -152 -55
-190 -93 -27 -27 -105 -179 -105 -206 0 -15 99 -16 1245 -16 l1246 0 -3 147
-3 148 -55 28 c-52 27 -61 28 -155 25 -115 -5 -157 -21 -216 -80 -20 -21 -40
-38 -42 -38 -3 0 -12 19 -22 42 -9 23 -27 55 -41 71 -60 71 5 145 84 97 20
-12 30 -25 26 -32 -5 -8 -2 -9 10 -5 10 4 30 7 45 7 16 0 56 19 94 45 37 25
84 48 105 51 34 5 42 2 71 -28 26 -29 37 -33 66 -30 19 2 35 9 35 14 0 5 -13
7 -30 3 -26 -6 -35 -1 -65 31 -30 32 -39 36 -68 31 -19 -3 -67 -26 -108 -51
-82 -51 -103 -55 -159 -26 -53 27 -95 26 -125 -5 -14 -13 -25 -31 -25 -40 0
-28 -89 54 -115 105 -28 55 -37 63 -90 81 -22 7 -43 16 -47 19 -9 7 -28 149
-21 166 3 8 11 13 18 12 18 -4 75 58 75 82 0 13 7 20 18 20 50 0 167 104 207
184 45 91 27 231 -34 251 -16 5 -15 11 11 88 34 100 36 191 9 295 -23 88 -56
146 -115 200 -43 40 -44 42 -20 42 37 0 78 -24 113 -67 39 -47 40 -26 2 53
-48 101 -137 157 -217 135 -33 -9 -35 -9 -27 12 4 12 7 36 6 53 -2 50 -51 134
-76 134 -6 0 1 -12 15 -27 28 -31 48 -82 48 -122 -1 -19 -6 -11 -19 27 -28 80
-90 136 -174 158 -27 6 -25 3 21 -43z m282 -403 c0 -5 -4 -10 -10 -10 -5 0
-10 -11 -10 -25 0 -14 -7 -28 -15 -31 -8 -4 -15 -12 -15 -20 0 -19 -72 -18
-110 1 -22 11 -35 12 -56 5 -19 -7 -30 -7 -40 1 -30 24 -10 37 71 45 29 2 44
0 40 -6 -3 -6 -2 -10 4 -10 5 0 16 -3 25 -6 11 -4 19 2 26 20 7 20 16 26 40
26 16 0 30 5 30 10 0 6 5 10 10 10 6 0 10 -4 10 -10z m-566 -175 c-30 -26 -27
-33 6 -15 17 9 18 3 22 -73 4 -84 33 -171 72 -209 16 -17 14 -19 -34 -49 -28
-17 -49 -36 -47 -43 7 -22 58 -18 96 8 26 18 49 26 77 25 l39 -1 -33 -8 c-57
-13 -82 -46 -82 -104 0 -58 26 -119 53 -124 24 -5 56 36 57 71 0 48 -28 95
-58 99 l-27 3 34 16 c26 13 41 15 70 7 42 -12 91 -54 91 -80 0 -10 5 -18 10
-18 24 0 8 52 -27 88 -21 21 -47 49 -58 62 l-20 23 20 -10 c74 -38 98 -45 132
-40 29 3 45 -1 71 -20 38 -29 41 -58 16 -202 -9 -51 -13 -95 -10 -98 3 -3 13
8 23 25 17 29 17 29 28 9 18 -36 43 -32 85 12 50 53 70 112 49 150 -8 14 -24
27 -36 29 -17 3 -43 43 -43 68 0 2 13 10 30 19 41 21 75 19 106 -9 24 -20 28
-32 32 -90 5 -81 -15 -141 -66 -198 -50 -56 -115 -98 -150 -98 -25 0 -32 6
-45 38 -13 32 -16 34 -22 17 -21 -60 -67 -145 -100 -183 -48 -55 -234 -179
-283 -188 -20 -4 -55 -2 -78 4 -60 16 -203 105 -249 155 -45 49 -44 47 -116
207 -53 118 -71 179 -50 166 13 -9 13 -9 2 32 -6 20 -6 32 0 32 5 0 9 -8 9
-19 0 -10 12 -26 26 -36 l27 -17 -7 28 c-11 45 9 15 23 -35 7 -24 24 -55 38
-69 l25 -25 19 24 c10 13 19 34 19 47 0 34 -26 89 -49 104 -29 18 -8 38 41 38
30 0 46 -7 69 -29 16 -16 29 -36 29 -44 0 -8 7 -20 15 -27 22 -18 20 4 -6 57
-15 31 -33 50 -63 65 -57 30 -23 36 44 7 28 -12 53 -19 56 -17 3 3 2 17 -1 30
-5 20 -19 29 -68 45 -70 22 -70 22 -35 115 28 71 88 163 108 163 8 1 14 6 12
13 -2 13 85 102 101 102 6 0 -3 -11 -19 -25z m-259 -404 c7 -12 -12 -24 -25
-16 -11 7 -4 25 10 25 5 0 11 -4 15 -9z m-86 -85 c-5 -6 -9 7 -8 35 l1 44 8
-35 c5 -20 5 -39 -1 -44z m529 42 c16 -16 15 -65 -2 -71 -19 -8 -36 12 -36 43
0 39 15 51 38 28z m455 -58 c13 -51 -47 -160 -89 -160 -19 0 -18 16 6 59 11
20 24 48 30 64 5 15 17 27 26 27 10 0 14 5 10 15 -3 8 -2 15 3 15 5 0 11 -9
14 -20z m-915 -12 c7 -7 12 -25 12 -41 0 -24 -4 -28 -22 -25 -23 3 -35 35 -24
64 7 17 18 18 34 2z m-13 -98 c3 -5 1 -10 -4 -10 -6 0 -11 5 -11 10 0 6 2 10
4 10 3 0 8 -4 11 -10z m-205 -90 c18 -43 73 -84 105 -77 28 5 55 -22 55 -56 0
-43 -72 -27 -150 34 -35 27 -57 57 -79 103 -17 35 -31 69 -31 75 0 20 88 -49
100 -79z m89 -4 c25 -39 27 -56 7 -56 -23 0 -78 72 -63 82 22 14 35 8 56 -26z
m814 -265 c8 -107 23 -183 48 -235 15 -31 16 -43 7 -60 -27 -51 -60 -84 -162
-162 -102 -79 -111 -84 -157 -84 -27 0 -49 4 -49 9 0 5 -13 14 -30 21 -16 7
-30 16 -30 20 0 4 -7 11 -16 14 -25 9 -5 -14 30 -35 23 -14 26 -19 12 -19 -33
0 -266 260 -266 296 0 8 7 26 16 39 9 13 18 51 21 85 3 33 7 60 9 60 2 0 32
-17 67 -39 74 -45 137 -58 193 -38 54 18 186 109 242 166 26 26 50 49 53 49 3
1 9 -38 12 -87z m-234 -663 c1 -5 -3 -8 -9 -8 -5 0 -10 12 -9 28 0 24 1 25 9
7 5 -11 9 -23 9 -27z m22 9 c-10 -9 -11 -8 -5 6 3 10 9 15 12 12 3 -3 0 -11
-7 -18z"/>
<path d="M1203 993 c-17 -36 -17 -36 12 -79 23 -33 25 -35 25 -13 0 13 -7 32
-15 43 -11 14 -11 22 -2 37 7 12 8 22 2 28 -7 7 -14 1 -22 -16z"/>
<path d="M1183 915 c0 -8 7 -15 15 -15 12 0 12 3 2 15 -7 8 -13 15 -15 15 -1
0 -2 -7 -2 -15z"/>
<path d="M1200 839 c0 -5 5 -7 10 -4 6 3 10 8 10 11 0 2 -4 4 -10 4 -5 0 -10
-5 -10 -11z"/>
<path d="M1243 793 c-25 -10 -12 -23 22 -23 36 0 47 13 19 24 -18 7 -23 7 -41
-1z"/>
<path d="M618 2070 c-66 -42 -60 -47 10 -8 69 38 69 38 51 38 -8 0 -35 -14
-61 -30z"/>
</g>
</svg>
