<?xml version="1.0" standalone="no"?>
<!DOCTYPE svg PUBLIC "-//W3C//DTD SVG 20010904//EN"
 "http://www.w3.org/TR/2001/REC-SVG-20010904/DTD/svg10.dtd">
<svg version="1.0" xmlns="http://www.w3.org/2000/svg"
 width="1024.000000pt" height="1024.000000pt" viewBox="0 0 1024.000000 1024.000000"
 preserveAspectRatio="xMidYMid meet">
<metadata>
Created by potrace 1.14, written by Peter Selinger 2001-2017
</metadata>
<g transform="translate(0.000000,1024.000000) scale(0.100000,-0.100000)"
fill="#000000" stroke="none">
<path d="M0 8630 l0 -1610 100 0 c86 0 100 2 100 16 0 14 7 15 40 10 25 -4 40
-2 40 4 0 5 18 10 40 10 22 0 40 5 40 10 0 6 27 10 60 10 53 0 60 2 60 20 0
17 7 20 40 20 22 0 40 5 40 10 0 6 18 10 40 10 22 0 40 5 40 10 0 6 9 10 20
10 11 0 20 5 20 10 0 6 18 10 40 10 22 0 40 5 40 10 0 6 18 10 40 10 33 0 40
3 40 20 0 17 7 20 40 20 22 0 40 5 40 10 0 6 9 10 20 10 11 0 20 5 20 10 0 6
9 10 20 10 11 0 20 5 20 10 0 6 18 10 40 10 22 0 40 5 40 10 0 6 9 10 20 10
11 0 20 5 20 10 0 6 18 10 40 10 33 0 40 3 40 20 0 18 7 20 60 20 38 0 60 4
60 11 0 7 11 9 27 6 36 -7 53 1 53 24 0 15 7 19 40 19 22 0 40 5 40 10 0 6 9
10 20 10 11 0 20 5 20 10 0 6 9 10 20 10 11 0 20 5 20 10 0 6 9 10 20 10 11 0
20 -4 20 -10 0 -5 9 -10 20 -10 11 0 20 5 20 10 0 6 9 10 20 10 11 0 20 5 20
10 0 6 9 10 20 10 11 0 20 5 20 10 0 6 18 10 40 10 22 0 40 5 40 10 0 6 9 10
20 10 11 0 20 5 20 10 0 6 9 10 19 10 11 0 21 5 23 12 3 8 33 14 81 16 57 3
77 8 77 18 0 8 6 14 14 14 8 0 18 9 21 20 5 16 15 20 46 20 32 0 39 3 39 20 0
17 7 20 40 20 33 0 40 3 40 20 0 13 7 20 20 20 11 0 20 5 20 10 0 6 9 10 20
10 11 0 20 5 20 10 0 6 9 10 20 10 13 0 20 7 20 20 0 13 7 20 20 20 13 0 20 7
20 20 0 11 5 20 10 20 6 0 10 9 10 20 0 13 7 20 20 20 13 0 20 7 20 18 0 10 9
24 20 32 12 8 20 26 20 42 0 21 5 28 20 28 15 0 20 7 20 25 0 14 11 37 25 50
13 14 36 25 50 25 18 0 25 5 25 20 0 16 7 20 30 20 17 0 30 5 30 10 0 6 9 10
20 10 11 0 20 5 20 10 0 6 13 10 29 10 26 0 30 4 34 33 3 28 4 26 5 -10 1 -24
7 -43 13 -43 7 0 10 51 8 164 -4 188 -14 161 122 313 193 216 278 303 327 332
28 18 52 39 52 47 0 11 7 13 26 8 21 -5 25 -4 19 6 -5 8 -4 11 3 6 13 -8 82
19 82 32 0 5 11 10 24 10 12 0 67 25 121 56 54 31 100 56 102 56 2 0 19 11 37
25 18 14 41 25 51 25 10 0 32 4 49 10 17 5 72 21 121 36 50 14 115 35 145 46
30 10 68 21 84 23 27 4 83 20 116 32 8 3 21 7 29 9 54 11 118 28 126 33 18 12
114 33 124 27 5 -4 12 -2 15 3 3 5 30 12 59 16 28 4 62 11 73 16 12 4 41 11
65 14 24 4 62 13 84 21 22 7 52 14 66 14 14 0 40 5 57 11 22 7 46 7 89 -1 32
-7 67 -13 78 -13 11 0 24 -6 28 -11 6 -8 10 -7 13 1 3 7 12 9 20 6 7 -3 12 -8
10 -12 -4 -7 15 -10 62 -12 12 -1 22 -5 22 -10 0 -5 12 -6 26 -3 17 4 29 2 34
-6 5 -8 24 -13 45 -12 21 1 33 -3 30 -8 -3 -6 4 -10 17 -10 18 0 20 2 8 10 -8
5 -11 10 -6 10 5 0 17 -6 25 -14 17 -14 161 -50 169 -41 3 3 11 0 18 -6 8 -6
21 -9 29 -5 10 3 13 2 10 -5 -4 -6 -1 -9 6 -8 8 1 21 0 29 -3 20 -7 111 -30
130 -32 8 -1 22 -5 30 -8 8 -4 37 -11 63 -17 27 -7 57 -20 67 -29 11 -10 36
-24 57 -31 63 -23 532 -250 645 -313 71 -40 79 -48 106 -103 27 -54 55 -125
107 -267 10 -26 22 -45 27 -42 6 4 8 -2 3 -14 -3 -12 0 -36 8 -54 8 -18 20
-47 27 -65 6 -17 18 -34 27 -37 8 -3 11 -11 8 -17 -10 -15 4 -79 17 -79 5 0 8
7 4 15 -9 24 11 66 29 59 8 -3 15 -1 15 5 0 6 5 11 10 11 6 0 10 -9 10 -20 0
-13 7 -20 20 -20 11 0 20 -4 20 -10 0 -5 9 -10 20 -10 13 0 20 -7 20 -20 0
-13 7 -20 20 -20 13 0 20 -7 20 -20 0 -13 7 -20 20 -20 11 0 20 -4 20 -10 0
-5 9 -10 20 -10 11 0 20 -4 20 -10 0 -5 9 -10 20 -10 11 0 20 -4 20 -10 0 -5
25 -10 56 -10 36 0 61 -5 70 -15 10 -10 35 -15 70 -15 30 0 54 -4 54 -10 0 -5
-5 -10 -12 -10 -24 0 8 -20 32 -20 134 -3 240 -14 240 -25 0 -12 50 -25 103
-25 15 0 27 -4 27 -10 0 -5 9 -10 20 -10 13 0 20 -7 20 -19 0 -18 9 -22 90
-35 13 -2 26 -9 28 -15 2 -6 28 -11 63 -11 33 0 59 -4 59 -10 0 -5 9 -10 20
-10 11 0 20 -4 20 -9 0 -5 18 -12 40 -16 22 -4 47 -13 54 -21 8 -8 22 -14 30
-14 9 0 16 -4 16 -10 0 -5 23 -10 50 -10 43 0 50 -3 50 -20 0 -18 7 -20 60
-20 33 0 60 -4 60 -10 0 -5 9 -10 20 -10 13 0 20 -7 20 -20 0 -13 7 -20 19
-20 10 0 21 -7 24 -14 3 -8 22 -18 41 -21 25 -5 36 -13 38 -29 2 -13 11 -22
26 -24 12 -2 22 -7 22 -12 0 -5 16 -12 35 -16 25 -4 35 -11 35 -25 0 -15 7
-19 40 -19 33 0 40 -3 40 -20 0 -17 7 -20 40 -20 33 0 40 -3 40 -20 0 -15 7
-20 25 -20 16 0 25 -6 25 -16 0 -13 8 -15 35 -12 19 2 35 0 35 -4 0 -4 27 -8
60 -8 53 0 60 -2 60 -20 0 -18 7 -20 80 -20 73 0 80 -2 80 -20 0 -18 7 -20 80
-20 73 0 80 -2 80 -20 0 -18 7 -20 60 -20 53 0 60 -2 60 -20 0 -19 7 -20 100
-20 67 0 100 -4 100 -11 0 -7 10 -9 25 -7 19 4 25 1 25 -12 0 -24 20 -30 91
-30 l59 0 0 1470 0 1470 -5120 0 -5120 0 0 -1610z m7074 -190 c-6 -5 -24 21
-24 34 0 6 6 1 14 -10 8 -10 12 -21 10 -24z"/>
<path d="M3750 9039 c0 -5 -3 -8 -7 -7 -21 5 -244 -42 -412 -87 -30 -8 -57
-12 -61 -10 -4 3 -14 -3 -21 -13 -13 -15 -12 -16 4 -3 9 7 17 9 17 4 0 -6 -64
-77 -142 -158 -79 -82 -134 -143 -122 -137 11 6 71 64 134 129 103 106 140
137 140 113 0 -5 -4 -11 -10 -15 -5 -3 -19 -20 -32 -37 -23 -33 -19 -32 49 14
31 21 87 39 205 68 209 50 248 56 451 71 135 10 170 10 177 0 9 -15 15 -18
175 -99 113 -56 377 -204 580 -323 116 -68 262 -166 347 -232 36 -28 81 -60
98 -71 l32 -18 -7 23 c-6 17 3 11 29 -21 42 -51 116 -137 131 -154 6 -6 29
-33 51 -61 21 -27 65 -77 96 -110 31 -34 74 -83 95 -110 40 -54 55 -72 91
-113 13 -15 37 -47 54 -72 35 -50 74 -90 89 -90 5 0 9 -12 9 -27 0 -36 11 -52
38 -56 22 -3 92 -76 92 -95 0 -6 10 -14 21 -17 17 -6 19 -9 8 -16 -11 -7 -9
-10 8 -15 12 -3 24 -17 27 -30 4 -13 11 -24 16 -24 6 0 10 -9 10 -20 0 -11 5
-20 12 -20 6 0 9 -3 6 -6 -4 -3 0 -17 8 -32 7 -14 11 -28 9 -31 -6 -5 0 -12
-71 84 -32 44 -101 130 -152 190 -52 61 -145 178 -208 260 -62 83 -186 233
-275 335 -89 102 -165 194 -168 204 -5 13 -20 20 -46 23 -26 3 -51 16 -81 41
-65 58 -372 260 -529 347 -27 16 -83 48 -122 72 -40 24 -75 43 -78 43 -3 0
-29 15 -58 33 -29 18 -99 57 -157 87 -58 29 -126 66 -153 82 l-47 28 -193 -14
c-189 -14 -283 -31 -462 -81 -49 -13 -99 -25 -110 -25 -11 0 -54 -30 -95 -66
-41 -36 -102 -87 -135 -112 -107 -81 -104 -80 90 28 66 36 131 67 145 68 14 0
88 17 165 36 125 32 489 86 574 86 17 0 31 5 31 11 0 19 42 -1 215 -103 439
-260 517 -319 850 -647 368 -363 552 -541 615 -597 87 -78 258 -258 334 -354
20 -25 53 -65 73 -90 51 -63 7 -18 -148 149 -68 74 -162 174 -209 222 l-85 86
-200 22 c-384 42 -376 41 -244 36 64 -3 183 -14 265 -25 81 -11 149 -18 151
-16 2 1 -30 34 -69 72 -40 38 -217 209 -393 381 -449 437 -510 487 -825 671
-80 46 -174 103 -210 125 -76 49 -89 50 -349 17 -227 -28 -273 -36 -394 -70
-59 -16 -116 -30 -126 -30 -10 0 -34 -13 -54 -29 -20 -15 -69 -49 -109 -75
-72 -47 -73 -48 -96 -119 -12 -40 -27 -101 -32 -137 -5 -36 -16 -103 -24 -150
-22 -119 -20 -149 6 -80 11 30 56 152 100 270 80 213 104 268 88 193 -26 -113
-63 -232 -90 -288 -6 -11 -21 -51 -34 -90 -14 -38 -34 -95 -45 -125 -19 -50
-39 -136 -61 -262 -5 -27 -11 -51 -13 -55 -22 -36 -127 -687 -113 -701 3 -2 8
9 12 24 3 16 37 146 74 289 62 238 118 480 122 530 1 11 4 -46 7 -127 3 -80 9
-150 13 -154 10 -10 48 25 48 45 1 9 12 -6 26 -32 14 -26 22 -52 19 -57 -3 -6
-3 -10 2 -10 9 0 33 -48 33 -67 0 -7 6 -13 13 -13 8 0 7 -4 -3 -10 -11 -7 -11
-10 -2 -10 7 0 11 -4 7 -9 -3 -5 3 -16 13 -23 11 -7 18 -21 16 -30 -1 -10 5
-22 14 -28 10 -5 14 -10 9 -10 -4 0 0 -11 9 -25 8 -13 13 -29 9 -35 -11 -19
23 -22 52 -5 21 13 18 9 -9 -15 -21 -18 -38 -39 -38 -47 0 -9 -6 -13 -15 -10
-8 4 -17 1 -21 -5 -4 -7 -3 -8 4 -4 7 4 12 3 12 -2 0 -13 -67 -82 -79 -82 -6
0 -13 -10 -17 -22 -3 -13 -31 -42 -61 -66 -91 -73 -220 -162 -232 -162 -7 0
-8 -6 -2 -17 19 -37 130 -272 241 -510 18 -40 36 -73 40 -73 3 0 6 -9 7 -20 4
-45 53 -129 53 -89 0 5 4 7 10 4 6 -4 5 -11 -3 -19 -6 -8 -15 -12 -18 -10 -3
2 -5 -10 -4 -26 1 -16 -2 -35 -6 -42 -6 -9 -9 -4 -9 14 0 26 -30 116 -66 196
-118 263 -179 387 -197 401 -10 7 -16 19 -13 27 3 7 1 16 -5 19 -5 4 -9 12 -8
18 1 7 0 21 -1 32 -2 15 -4 12 -11 -10 -7 -28 -8 -27 -6 10 1 27 -2 39 -10 37
-7 -1 -13 7 -13 18 0 11 -4 20 -10 20 -5 0 -10 -8 -10 -17 0 -14 -3 -14 -12
-5 -31 31 10 546 68 852 24 127 35 244 50 558 6 115 5 132 -8 132 -24 0 -27
-17 -29 -192 -1 -90 -6 -192 -11 -228 -6 -36 -11 -87 -13 -115 -2 -27 -4 -56
-4 -64 -1 -8 -8 -11 -22 -8 -14 4 -19 1 -16 -7 3 -7 -3 -17 -13 -24 -14 -8
-19 -30 -25 -94 -3 -46 -13 -132 -21 -193 -29 -216 -27 -479 5 -519 4 -6 11
-34 15 -63 4 -28 13 -68 22 -88 13 -33 13 -48 -1 -154 -9 -64 -15 -139 -13
-167 l3 -49 12 45 c13 53 16 24 4 -39 -10 -51 -16 -42 89 -126 41 -32 80 -64
86 -70 6 -5 39 -34 74 -64 34 -30 82 -76 108 -103 25 -26 50 -48 56 -48 6 0
92 -24 191 -54 99 -30 181 -53 183 -51 2 2 -14 8 -35 15 -51 16 -66 32 -19 19
21 -6 40 -8 44 -5 3 3 11 -3 19 -14 8 -11 25 -20 38 -20 26 0 24 -9 45 180 17
163 32 636 26 835 -8 264 -10 294 -18 289 -4 -3 -5 2 -2 11 5 11 -2 17 -24 21
-18 4 -29 12 -28 21 0 9 -5 18 -13 21 -10 3 -12 0 -7 -13 5 -13 2 -16 -11 -10
-10 4 -34 8 -53 11 -34 3 -34 3 -5 -5 21 -6 24 -9 10 -10 -29 -2 -60 -27 -43
-35 7 -3 3 -3 -9 0 -13 3 -23 1 -23 -5 0 -6 -7 -8 -15 -5 -8 4 -15 2 -15 -4 0
-18 -38 -1 -43 19 -3 11 -5 20 -4 22 3 9 -26 47 -37 47 -7 0 -20 26 -30 58
-20 63 -91 203 -201 392 -80 137 -131 238 -124 243 15 11 208 185 274 248 161
153 308 283 297 263 -20 -38 -424 -414 -529 -493 -55 -40 7 -23 106 31 146 78
168 88 184 82 8 -3 17 -1 21 4 10 16 63 1 75 -21 11 -21 11 -21 6 3 -6 24 -5
24 9 6 15 -18 16 -18 26 8 5 15 10 31 10 36 0 21 72 256 81 265 7 7 8 4 4 -7
-14 -37 84 -91 186 -102 25 -3 57 -10 72 -15 17 -7 27 -7 29 0 2 7 19 5 46 -4
39 -14 43 -14 56 4 12 18 14 18 54 -1 23 -11 45 -20 50 -20 5 0 21 -9 36 -21
14 -11 29 -18 34 -15 4 2 34 -2 67 -10 33 -7 79 -14 102 -14 38 0 46 5 90 55
52 59 68 68 53 31 -7 -19 -4 -28 16 -47 15 -14 23 -31 21 -41 -3 -9 0 -16 6
-15 5 1 13 -8 16 -20 3 -12 23 -35 45 -52 21 -17 36 -31 32 -31 -3 0 49 -55
116 -123 68 -67 168 -171 223 -230 165 -176 149 -146 -82 156 -62 81 -111 147
-109 147 9 0 263 -284 286 -320 32 -49 44 -60 37 -35 -3 11 -8 36 -11 55 -6
35 -6 35 32 34 l37 -1 -3 -44 -3 -44 22 33 c29 44 35 34 10 -17 -24 -45 -26
-55 -10 -46 10 7 74 -19 83 -34 5 -8 -86 -26 -111 -22 -18 3 -16 -9 4 -31 16
-17 15 -18 -6 -15 -12 2 -26 8 -29 14 -5 7 -44 -2 -119 -27 -62 -21 -134 -42
-160 -45 -41 -6 -102 -20 -138 -32 -5 -1 -30 -7 -55 -12 -25 -5 -70 -19 -100
-30 -30 -10 -116 -35 -190 -55 -176 -46 -324 -88 -430 -120 -47 -14 -94 -26
-105 -26 -50 -1 -46 -17 10 -49 65 -37 60 -36 175 -27 180 13 214 17 226 27 6
5 33 11 60 14 27 2 49 5 49 5 0 2 37 11 65 15 64 11 138 29 167 41 17 8 38 14
46 14 15 0 182 64 267 102 65 29 108 64 141 116 52 81 34 14 -52 -201 -45
-111 -92 -226 -105 -254 -12 -29 -19 -53 -13 -53 5 0 9 6 9 14 0 7 9 25 20 38
10 14 16 28 12 32 -3 4 -2 10 4 14 17 11 46 71 39 82 -3 6 -2 10 4 10 10 0 41
60 55 107 9 27 57 63 84 63 14 0 28 -14 43 -40 13 -22 27 -40 32 -40 4 0 5 -9
2 -20 -4 -14 -2 -20 6 -18 7 2 15 -6 17 -17 2 -11 14 -33 27 -50 12 -16 21
-35 18 -42 -2 -6 6 -13 19 -15 13 -2 22 -9 20 -16 -1 -6 6 -12 15 -12 14 0 15
-2 4 -9 -15 -10 -7 -31 13 -31 7 0 18 -11 24 -25 6 -14 17 -25 23 -25 6 0 9
-9 6 -20 -3 -13 0 -20 9 -20 8 0 15 -4 15 -10 1 -5 2 -14 3 -19 0 -5 5 -13 10
-18 5 -5 6 -2 2 7 -4 8 1 5 10 -7 9 -13 23 -23 30 -23 8 0 14 -9 14 -21 0 -13
10 -23 30 -30 19 -7 30 -18 30 -29 0 -10 12 -28 26 -39 14 -11 23 -25 20 -30
-4 -5 -1 -13 5 -17 8 -4 9 -3 5 4 -4 7 -1 12 9 12 11 0 15 -5 11 -15 -3 -8 0
-16 7 -16 7 -1 19 -2 27 -3 8 0 14 -7 12 -15 -2 -9 3 -11 13 -7 15 5 90 -28
101 -45 3 -5 11 -9 18 -9 28 0 202 -163 211 -198 5 -19 9 -22 15 -12 12 20 -1
46 -76 152 -38 53 -75 105 -82 115 -7 10 -5 3 3 -14 9 -18 14 -33 11 -33 -5 0
-199 244 -248 312 -16 21 -28 42 -28 47 0 5 -7 12 -16 15 -8 3 -13 9 -10 14 2
4 -11 28 -30 52 -41 55 -185 256 -199 278 -24 40 -73 101 -122 152 -29 30 -53
59 -53 65 2 21 196 -197 293 -329 56 -76 132 -176 169 -221 36 -46 79 -102 94
-126 16 -24 52 -72 81 -107 29 -35 53 -68 53 -74 0 -7 5 -7 14 1 8 7 16 8 18
2 4 -11 69 -18 84 -8 8 4 16 -20 24 -71 14 -76 14 -77 20 -34 7 49 30 81 30
42 -1 -14 -5 -56 -10 -95 -8 -64 -7 -71 11 -86 27 -20 32 -66 8 -72 -17 -5
-17 -8 1 -73 24 -83 25 -116 2 -54 -24 63 -27 67 -68 72 -38 4 -48 -7 -79 -91
-18 -48 -19 -15 -2 35 23 65 29 96 17 89 -5 -3 -10 -2 -10 4 0 17 -31 0 -104
-56 -38 -29 -76 -53 -83 -53 -8 0 -25 -8 -40 -17 -14 -10 -31 -18 -37 -20 -64
-14 -103 -26 -126 -38 -15 -8 -77 -21 -136 -30 -139 -20 -243 -52 -424 -129
l-145 -61 165 -7 c91 -4 178 -9 195 -12 40 -8 477 -8 590 0 49 4 87 4 84 0 -7
-8 -305 -35 -449 -42 -58 -2 -117 -6 -133 -9 -36 -6 -197 22 -215 38 -18 14
-261 17 -263 3 -1 -9 128 -85 326 -190 112 -60 149 -82 199 -115 l39 -26 113
59 c62 33 141 81 176 107 35 27 68 48 74 49 6 0 19 10 30 22 10 11 84 75 164
142 80 66 183 154 230 195 147 129 137 122 103 71 -16 -25 -38 -63 -49 -85
-10 -22 -25 -47 -33 -55 -7 -8 -22 -33 -32 -55 -10 -22 -22 -39 -26 -37 -4 2
-9 -3 -11 -11 -4 -18 -174 -197 -187 -197 -17 0 -47 -76 -50 -125 -3 -49 11
-57 31 -17 12 25 96 113 267 281 123 121 166 155 90 70 -21 -23 -38 -49 -38
-57 0 -8 -6 -16 -13 -18 -7 -1 -8 0 -2 3 5 2 10 9 10 15 0 6 -6 5 -15 -2 -10
-8 -12 -17 -6 -23 5 -5 1 -17 -11 -29 -13 -13 -17 -23 -9 -27 13 -8 -1 -68
-15 -61 -5 3 -10 -5 -12 -17 -2 -13 -8 -23 -13 -23 -5 0 -9 -7 -9 -15 0 -8 -3
-14 -8 -12 -4 1 -8 -2 -9 -7 -1 -5 -6 -12 -11 -15 -5 -3 -17 -21 -26 -38 -9
-18 -21 -33 -26 -33 -6 0 -10 -9 -10 -20 0 -10 -8 -24 -17 -29 -10 -6 -15 -11
-11 -11 9 0 -37 -50 -46 -50 -4 0 -11 10 -16 23 -9 22 -9 22 -9 -3 0 -26 30
-70 48 -70 5 0 13 5 17 12 4 6 3 8 -2 5 -6 -3 -16 -2 -24 3 -11 7 34 57 184
207 110 109 188 182 174 163 -50 -72 -36 -93 17 -25 18 24 30 32 43 28 15 -6
15 -5 3 10 -12 15 -12 19 2 30 19 15 32 63 19 71 -11 7 -3 56 9 56 5 0 9 -12
9 -26 0 -19 4 -25 15 -20 20 7 19 -4 -2 -19 -16 -12 -16 -14 7 -33 l24 -19
-22 -14 c-12 -8 -22 -19 -22 -25 0 -6 -11 -21 -25 -34 -14 -13 -25 -18 -25
-11 0 7 -5 9 -11 6 -6 -5 -4 -12 8 -22 17 -14 17 -14 -1 -9 -15 5 -17 2 -13
-14 4 -17 1 -19 -19 -14 -15 4 -24 2 -24 -5 0 -6 5 -11 11 -11 5 0 7 -5 4 -10
-4 -6 -10 -8 -14 -5 -5 2 -13 -7 -19 -20 -13 -28 1 -34 18 -7 8 11 10 12 7 2
-2 -8 -13 -20 -24 -25 -11 -6 -18 -15 -16 -21 2 -7 -8 -15 -22 -18 -14 -4 -23
-11 -19 -17 3 -6 -2 -19 -12 -30 -9 -10 -14 -19 -9 -19 4 0 2 -7 -5 -15 -7 -8
-16 -13 -20 -10 -5 3 -6 -3 -3 -13 3 -13 -6 -28 -26 -45 -17 -14 -31 -33 -31
-42 0 -9 -4 -25 -10 -35 -8 -15 -4 -25 21 -49 31 -32 32 -35 8 -99 -14 -35
-30 -23 -76 58 -22 40 -51 82 -63 94 -17 17 46 -98 107 -192 l15 -24 26 41
c15 23 33 41 41 41 8 0 76 62 150 138 87 88 123 120 100 88 -18 -26 -44 -59
-56 -73 -13 -13 -23 -29 -23 -36 1 -18 235 244 395 442 33 41 71 88 85 104 22
27 22 30 5 23 -53 -21 -90 -18 -150 14 -33 17 -51 24 -41 16 10 -9 24 -17 30
-19 6 -2 7 -8 3 -13 -4 -4 -47 2 -95 14 -48 13 -98 25 -112 27 -14 3 -41 8
-60 11 -23 4 -45 19 -64 41 -15 19 -31 32 -34 29 -3 -3 -11 2 -18 12 -12 15
-13 14 -14 -11 0 -16 5 -37 10 -47 8 -16 8 -18 -5 -14 -8 4 -15 16 -15 28 0
11 -3 32 -7 45 -5 22 -4 23 20 19 15 -3 27 -2 27 1 0 4 18 5 40 3 22 -2 40 -8
40 -13 0 -5 11 -8 25 -7 31 3 31 4 -2 23 -27 15 -27 16 -3 9 14 -3 35 -13 48
-21 42 -26 48 -7 48 151 -1 79 2 142 7 139 4 -2 7 2 7 11 0 8 -6 17 -12 19
-10 4 -10 6 0 6 12 1 17 53 5 64 -3 4 -13 1 -22 -6 -14 -11 -14 -10 -2 5 7 10
17 15 22 12 5 -3 6 2 3 10 -4 10 -1 16 7 16 9 1 7 6 -5 15 -11 8 -15 15 -9 15
7 0 10 24 8 70 -2 42 0 68 6 65 5 -4 9 -1 9 4 0 6 -4 11 -9 11 -5 0 -8 11 -7
24 0 13 4 22 9 19 4 -2 7 1 7 6 0 17 -25 13 -44 -8 -17 -18 -17 -20 1 -30 10
-6 13 -11 7 -11 -15 0 -36 25 -27 33 3 4 1 7 -5 7 -7 0 -11 6 -9 13 1 7 -8 12
-21 11 -13 0 -19 3 -14 8 11 11 62 0 62 -13 0 -6 6 -4 14 3 8 8 11 19 6 28 -4
8 -5 22 -3 30 3 9 1 11 -4 5 -12 -15 -67 -19 -57 -4 5 8 1 11 -13 7 -27 -7
-41 18 -39 70 2 52 -11 56 -17 5 -3 -36 -4 -36 -7 10 -1 26 -4 52 -5 57 -1 6
-3 22 -4 36 0 14 -5 23 -10 20 -5 -3 -7 -15 -4 -25 3 -11 0 -28 -7 -38 -9 -14
-10 -14 -6 -1 2 9 2 19 -1 22 -15 15 -10 72 9 97 l20 27 -98 114 c-54 62 -157
176 -229 253 -162 175 -373 409 -411 455 -15 19 -60 69 -99 110 -39 41 -82 89
-96 105 -28 33 -24 31 -239 177 -283 192 -545 351 -755 456 -71 36 -165 85
-208 109 -65 37 -81 42 -98 32 -11 -6 -23 -8 -26 -5 -3 3 5 9 17 14 50 18 -9
27 -192 28 -104 1 -188 -2 -188 -7z m-185 -436 c71 -29 82 -40 35 -33 -21 3
-230 124 -230 133 0 4 26 -9 58 -29 31 -21 93 -52 137 -71z m205 -33 c35 -12
137 -32 226 -45 90 -14 220 -36 291 -49 410 -77 569 -108 573 -113 7 -7 -74 5
-190 27 -52 10 -129 24 -170 30 -41 7 -113 20 -160 30 -47 11 -175 33 -285 50
-174 27 -357 69 -373 85 -11 10 25 4 88 -15z m1585 -1070 c207 -121 587 -393
718 -513 23 -21 -1 -5 -54 35 -185 142 -431 314 -620 435 -179 114 -254 166
-164 113 22 -13 76 -44 120 -70z m-1920 -200 c-3 -5 -10 -10 -16 -10 -5 0 -9
5 -9 10 0 6 7 10 16 10 8 0 12 -4 9 -10z m190 -30 c-3 -5 -10 -10 -16 -10 -5
0 -9 5 -9 10 0 6 7 10 16 10 8 0 12 -4 9 -10z m7 -27 c-13 -3 -19 -9 -16 -15
4 -7 2 -8 -5 -4 -17 11 -3 26 22 25 22 -2 22 -2 -1 -6z m-337 -63 c-3 -5 -10
-10 -16 -10 -5 0 -9 5 -9 10 0 6 7 10 16 10 8 0 12 -4 9 -10z m-45 -25 c-7 -8
-18 -15 -24 -15 -6 0 -2 7 8 15 25 19 32 19 16 0z m3137 -245 c1 -10 -1 -21
-6 -24 -4 -3 -8 8 -9 25 -1 33 10 32 15 -1z m113 -14 c0 -3 -4 -8 -10 -11 -5
-3 -10 -1 -10 4 0 6 5 11 10 11 6 0 10 -2 10 -4z m-3603 -78 c-3 -7 -5 -2 -5
12 0 14 2 19 5 13 2 -7 2 -19 0 -25z m3487 11 c-3 -6 0 -15 7 -20 11 -7 10 -9
-3 -9 -11 0 -18 8 -18 20 0 11 5 20 11 20 5 0 7 -5 3 -11z m82 -34 c10 -8 14
-15 8 -15 -5 0 -19 7 -30 15 -10 8 -14 15 -8 15 5 0 19 -7 30 -15z m-78 -33
c2 -7 -2 -10 -12 -6 -9 3 -16 11 -16 16 0 13 23 5 28 -10z m-3478 -72 l-11
-25 6 25 c2 14 6 39 6 55 l2 30 4 -30 c2 -17 -1 -42 -7 -55z m3475 32 c-3 -3
-11 0 -18 7 -9 10 -8 11 6 5 10 -3 15 -9 12 -12z m-3488 -104 c-3 -8 -6 -5 -6
6 -1 11 2 17 5 13 3 -3 4 -12 1 -19z m3477 -24 c9 -8 16 -20 16 -27 0 -6 -9
-1 -20 11 -30 32 -26 46 4 16z m-3487 -36 c-3 -7 -5 -2 -5 12 0 14 2 19 5 13
2 -7 2 -19 0 -25z m3558 4 c-3 -3 -11 0 -18 7 -9 10 -8 11 6 5 10 -3 15 -9 12
-12z m-3172 -307 c4 -8 2 -17 -3 -20 -6 -4 -10 3 -10 14 0 25 6 27 13 6z
m2604 -97 c-3 -8 -6 -5 -6 6 -1 11 2 17 5 13 3 -3 4 -12 1 -19z m-2357 -18 c0
-5 -4 -10 -9 -10 -6 0 -13 5 -16 10 -3 6 1 10 9 10 9 0 16 -4 16 -10z m-180
-4 c0 -3 -4 -8 -10 -11 -5 -3 -10 -1 -10 4 0 6 5 11 10 11 6 0 10 -2 10 -4z
m80 -26 c12 -8 10 -9 -7 -7 -12 2 -26 6 -29 10 -11 11 19 8 36 -3z m-43 -16
c-3 -3 -12 -4 -19 -1 -8 3 -5 6 6 6 11 1 17 -2 13 -5z m53 -14 c0 -5 -2 -10
-4 -10 -3 0 -8 5 -11 10 -3 6 -1 10 4 10 6 0 11 -4 11 -10z m2946 -21 c3 -6
-5 -3 -20 6 -14 10 -26 19 -26 22 0 7 39 -17 46 -28z m-2971 8 c11 -7 21 -18
23 -24 4 -23 -25 -14 -42 12 -18 27 -12 31 19 12z m99 -52 c44 -19 47 -27 5
-15 -44 13 -81 39 -73 52 5 7 11 6 19 -5 7 -9 28 -24 49 -32z m6 30 c16 -19 0
-19 -26 0 -16 12 -16 14 -3 15 9 0 22 -7 29 -15z m2980 -80 c-7 -9 -15 -13
-18 -10 -3 2 1 11 8 20 7 9 15 13 18 10 3 -2 -1 -11 -8 -20z"/>
<path d="M3377 8983 c-32 -9 -56 -17 -54 -19 7 -7 117 19 117 27 0 5 -1 9 -2
8 -2 -1 -29 -8 -61 -16z"/>
<path d="M4860 8666 c0 -3 9 -10 20 -16 11 -6 20 -8 20 -6 0 3 -9 10 -20 16
-11 6 -20 8 -20 6z"/>
<path d="M4945 8613 c11 -11 189 -127 250 -163 151 -91 274 -206 495 -465 87
-102 617 -645 630 -645 3 0 14 -20 24 -45 28 -67 40 -72 66 -31 l21 35 -38 33
c-150 128 -615 589 -691 683 -85 106 -276 288 -382 365 -122 87 -410 267 -375
233z"/>
<path d="M2953 8527 c-24 -11 -43 -24 -43 -29 0 -13 54 -22 58 -10 2 7 8 10
12 7 5 -3 6 -13 3 -23 -3 -9 -2 -13 2 -9 5 4 10 26 10 47 1 22 1 40 1 39 -1 0
-20 -10 -43 -22z"/>
<path d="M5551 8203 c45 -43 119 -123 164 -178 79 -95 431 -450 578 -582 38
-34 82 -68 98 -75 16 -7 32 -21 35 -31 3 -9 10 -15 15 -11 13 7 -29 54 -48 54
-13 0 -602 588 -665 665 -62 74 -233 235 -250 235 -4 0 29 -35 73 -77z"/>
<path d="M2801 8168 c-14 -23 -14 -23 8 -4 22 20 25 26 13 26 -4 0 -13 -10
-21 -22z"/>
<path d="M4249 8013 c-13 -16 -12 -17 4 -4 9 7 17 15 17 17 0 8 -8 3 -21 -13z"/>
<path d="M4169 7903 c-13 -16 -12 -17 4 -4 16 13 21 21 13 21 -2 0 -10 -8 -17
-17z"/>
<path d="M4088 7788 c-75 -109 -119 -181 -101 -163 16 15 154 225 149 225 -3
0 -25 -28 -48 -62z"/>
<path d="M2250 7735 c0 -8 7 -15 15 -15 8 0 15 4 15 9 0 5 8 12 18 14 9 3 2 5
-15 6 -23 1 -33 -4 -33 -14z"/>
<path d="M2696 7728 c-3 -13 -5 -48 -5 -78 2 -53 2 -52 10 20 8 77 6 98 -5 58z"/>
<path d="M2686 7520 c-12 -113 -17 -388 -7 -445 l9 -50 1 60 c1 33 5 132 10
220 4 88 5 189 2 225 l-6 65 -9 -75z"/>
<path d="M2772 7455 c0 -16 2 -22 5 -12 2 9 2 23 0 30 -3 6 -5 -1 -5 -18z"/>
<path d="M3510 7401 c-8 -6 -25 -8 -37 -4 -17 4 -23 1 -23 -11 0 -9 -5 -16
-12 -16 -6 0 -8 -3 -4 -7 4 -5 14 1 22 11 8 11 14 15 14 9 0 -6 8 -13 18 -16
9 -2 26 -8 37 -12 16 -7 18 -6 8 6 -19 20 -16 33 4 14 12 -12 28 -15 60 -12
36 3 43 1 38 -11 -4 -12 -3 -13 10 -2 8 7 15 8 15 2 0 -13 29 -24 42 -16 5 3
0 12 -11 20 -11 8 -18 20 -15 28 6 15 2 16 -86 22 -36 2 -72 0 -80 -5z"/>
<path d="M7096 7279 c-33 -40 -39 -57 -61 -179 -4 -23 -4 -23 8 -6 51 77 67
93 103 104 52 15 105 7 126 -18 17 -22 25 -20 77 17 2 1 5 14 6 27 l3 26 -33
-26 -34 -26 -38 35 c-68 63 -90 77 -109 70 -12 -4 -15 -3 -10 5 15 25 -4 10
-38 -29z"/>
<path d="M3720 7300 c0 -5 5 -10 11 -10 5 0 7 5 4 10 -3 6 -8 10 -11 10 -2 0
-4 -4 -4 -10z"/>
<path d="M6886 7297 c3 -10 9 -15 12 -12 3 3 0 11 -7 18 -10 9 -11 8 -5 -6z"/>
<path d="M3543 7280 c-34 -14 -28 -21 7 -9 17 6 30 13 30 15 0 6 -12 4 -37 -6z"/>
<path d="M6896 7204 c-4 -14 -5 -28 -3 -31 3 -2 8 8 11 23 4 14 5 28 3 31 -3
2 -8 -8 -11 -23z"/>
<path d="M8675 7183 c-3 -21 -19 -82 -35 -135 -16 -53 -32 -118 -35 -145 -8
-66 -5 -645 4 -768 l8 -100 3 95 c1 52 2 103 1 113 -1 9 3 17 10 17 7 0 9 9 6
22 -4 12 1 37 10 56 12 26 14 41 6 67 -9 27 -8 38 5 56 11 16 12 24 4 27 -16
5 -15 29 1 35 9 3 9 9 -1 27 -10 16 -11 25 -3 33 6 6 11 26 11 44 0 18 3 33 8
33 4 0 6 18 4 40 -3 25 0 40 7 40 6 0 11 -10 11 -22 0 -12 3 -18 7 -15 9 10
10 77 1 77 -4 0 -2 14 4 31 9 27 7 127 -6 299 -2 19 -4 52 -5 73 0 20 -5 37
-10 37 -5 0 -12 -17 -16 -37z"/>
<path d="M3810 7078 c0 -73 -3 -162 -5 -198 -2 -36 -6 -144 -10 -240 -3 -96
-8 -206 -10 -245 -10 -158 -18 -260 -21 -266 -1 -3 -6 -46 -10 -95 -7 -91 -18
-129 -34 -119 -6 3 -7 -1 -3 -10 5 -15 1 -14 -33 3 -33 16 -76 31 -191 67 -28
9 -9 -5 80 -57 117 -70 129 -74 167 -51 16 9 30 20 30 24 0 3 31 12 70 19 38
7 67 17 64 22 -3 4 32 8 78 9 46 0 101 2 123 4 22 1 168 6 325 10 156 4 288 9
292 11 5 3 5 11 1 17 -4 7 -9 21 -10 31 -2 11 -7 24 -12 30 -5 6 -12 29 -16
51 -4 22 -10 45 -15 50 -4 6 -13 35 -20 65 -13 57 -52 185 -71 232 -10 24 -14
26 -32 16 -32 -17 -687 -477 -770 -541 -21 -16 -41 -26 -45 -22 -4 4 2 13 13
21 21 15 34 26 120 90 28 20 52 41 53 46 2 4 8 8 14 8 5 0 41 24 79 53 79 60
139 104 264 192 50 34 98 70 107 78 9 9 29 24 45 33 15 10 56 38 91 62 l63 44
-45 32 c-24 17 -62 46 -84 64 -28 22 -42 28 -45 20 -4 -8 -6 -7 -6 4 -1 11 -8
15 -23 12 -13 -2 -17 -1 -10 2 15 7 -2 34 -22 34 -7 0 -23 11 -35 24 -14 15
-29 22 -39 19 -10 -4 -13 -2 -8 6 5 7 -5 23 -23 40 -17 16 -28 31 -25 34 3 3
-12 17 -33 31 -21 15 -38 30 -38 34 0 14 -32 52 -38 45 -4 -3 -7 -1 -7 6 0 17
-46 61 -64 61 -8 0 -18 5 -22 12 -5 8 -2 9 9 5 10 -3 17 -2 17 3 0 9 -5 11
-25 10 -3 0 -16 10 -28 23 -12 13 -38 29 -57 37 -43 16 -61 31 -29 23 l24 -6
-24 27 c-14 14 -30 26 -36 26 -13 0 -44 30 -43 43 0 5 -3 11 -5 14 -3 2 -6
-55 -7 -129z"/>
<path d="M7144 7127 c-53 -30 -101 -118 -90 -164 3 -16 8 -41 11 -58 5 -31 37
-65 61 -65 18 0 64 29 64 41 0 4 -15 5 -34 2 -40 -6 -71 21 -85 75 -11 39 0
73 38 115 66 73 150 -15 111 -117 -5 -14 -7 -26 -4 -26 16 0 69 55 70 73 1 20
1 20 -12 2 -13 -17 -14 -17 -20 -1 -4 10 -2 21 3 25 5 3 10 24 11 46 0 29 -2
34 -7 20 -8 -19 -8 -19 -15 2 -4 13 -5 27 -2 31 8 13 -77 13 -100 -1z"/>
<path d="M7303 7121 c1 -13 6 -17 22 -12 17 4 18 6 2 9 -9 2 -15 8 -12 13 4 5
2 9 -4 9 -5 0 -9 -8 -8 -19z"/>
<path d="M7350 7129 c0 -5 5 -7 10 -4 6 3 10 8 10 11 0 2 -4 4 -10 4 -5 0 -10
-5 -10 -11z"/>
<path d="M7433 7118 c-6 -11 39 -9 57 2 11 7 6 9 -18 7 -19 -1 -36 -5 -39 -9z"/>
<path d="M6796 7079 c-14 -24 -21 -72 -32 -217 -23 -313 -24 -331 -41 -530 -9
-106 -13 -195 -10 -198 12 -12 27 8 27 36 0 36 10 61 20 55 14 -9 40 25 33 42
-6 15 -8 14 -16 -4 -5 -12 -17 -23 -26 -26 -14 -3 -16 5 -13 65 2 37 7 68 11
68 3 0 5 18 3 40 -3 24 0 40 6 40 6 0 13 -17 15 -37 l4 -38 1 38 c1 21 6 36
11 32 6 -3 8 4 6 15 -3 14 2 20 13 20 15 1 15 2 -1 11 -13 8 -22 7 -33 -2 -26
-22 -16 80 10 106 18 18 19 20 3 23 -10 2 -17 12 -16 25 0 21 1 21 8 3 7 -19
8 -19 13 2 4 12 2 22 -3 22 -5 0 -9 20 -9 45 0 25 5 45 11 45 5 0 7 -4 4 -10
-4 -6 1 -7 11 -3 11 4 13 8 6 11 -7 2 -12 19 -12 38 0 24 4 33 12 28 6 -4 8
-3 4 4 -3 5 0 13 6 16 7 3 2 3 -12 0 -21 -4 -22 -3 -8 6 9 6 15 17 12 25 -4 8
-1 15 4 15 7 0 8 10 2 30 -7 25 -6 30 8 30 14 0 14 2 3 9 -8 5 -11 16 -8 24 3
8 0 20 -6 26 -8 8 -9 14 -1 19 10 7 14 82 4 82 -3 0 -14 -14 -24 -31z"/>
<path d="M6590 7077 c0 -10 -4 -59 -10 -110 -10 -93 -40 -668 -40 -764 0 -53
13 -70 25 -33 5 16 13 19 51 15 68 -7 84 5 84 68 0 29 5 86 10 127 6 41 12
113 15 160 3 47 8 103 11 124 4 22 7 99 9 173 2 106 -1 138 -12 149 -8 8 -10
14 -4 14 13 0 14 10 1 30 -7 12 -13 13 -28 4 -27 -17 -72 -6 -65 15 4 9 3 13
-2 9 -4 -4 -16 3 -26 15 -16 19 -18 20 -19 4z m2 -669 c-7 -7 -12 -8 -12 -2 0
14 12 26 19 19 2 -3 -1 -11 -7 -17z"/>
<path d="M7133 7073 c-4 -10 -15 -26 -26 -35 -17 -15 -17 -18 -4 -18 9 0 19
-9 22 -20 3 -11 13 -20 21 -20 9 0 13 5 9 13 -4 6 0 4 8 -6 9 -11 18 -14 21
-8 4 6 14 7 24 4 15 -6 15 -5 3 10 -9 11 -10 17 -2 17 18 0 13 38 -9 60 -25
25 -58 26 -67 3z"/>
<path d="M7308 7083 c6 -2 12 -9 12 -14 0 -6 -4 -8 -9 -5 -5 3 -15 -2 -22 -12
-13 -16 -12 -16 4 -2 18 13 19 12 16 -20 -2 -19 3 -44 10 -55 9 -14 11 -15 7
-3 -4 12 5 20 32 29 20 7 41 12 45 11 5 -1 6 2 2 8 -4 7 -13 7 -26 -1 -11 -5
-25 -8 -32 -6 -7 3 -1 9 13 15 14 6 21 11 15 12 -5 0 -3 5 5 10 12 8 10 9 -7
7 -12 -2 -26 -6 -29 -10 -17 -16 -26 -5 -10 12 15 17 15 19 1 25 -9 3 -22 6
-28 5 -8 0 -8 -2 1 -6z"/>
<path d="M4857 6973 c-17 -33 -77 -182 -77 -191 0 -11 29 33 30 45 0 6 16 46
36 88 19 43 33 79 30 82 -2 3 -11 -8 -19 -24z"/>
<path d="M6528 6948 c6 -8 10 -17 7 -20 -3 -2 2 -5 10 -5 23 0 14 31 -10 36
-16 3 -17 1 -7 -11z"/>
<path d="M7297 6939 c-7 -28 -6 -31 10 -14 6 6 8 18 3 24 -5 9 -9 5 -13 -10z"/>
<path d="M7026 6891 c6 -59 14 -79 53 -128 19 -25 34 -33 57 -33 18 0 47 -6
65 -14 24 -10 39 -11 53 -4 17 9 17 11 -10 30 -24 16 -25 18 -6 13 23 -7 32 9
10 19 -9 3 -8 8 5 16 12 8 17 22 15 44 -2 37 9 59 25 50 7 -4 6 -1 -1 7 -11
12 -16 10 -34 -11 -55 -68 -125 -79 -183 -29 -19 17 -39 45 -45 63 -8 26 -9
22 -4 -23z"/>
<path d="M6870 6901 c0 -34 15 -42 23 -11 3 10 -1 24 -9 31 -11 9 -14 6 -14
-20z"/>
<path d="M7315 6910 c3 -5 8 -10 11 -10 2 0 4 5 4 10 0 6 -5 10 -11 10 -5 0
-7 -4 -4 -10z"/>
<path d="M6910 6896 c0 -2 8 -10 18 -17 15 -13 16 -12 3 4 -13 16 -21 21 -21
13z"/>
<path d="M6910 6851 c0 -5 7 -12 16 -15 14 -5 15 -4 4 9 -14 17 -20 19 -20 6z"/>
<path d="M6870 6840 c-13 -8 -12 -10 3 -10 9 0 17 5 17 10 0 12 -1 12 -20 0z"/>
<path d="M5794 6767 c16 -20 30 -37 33 -37 7 0 -36 58 -49 66 -7 4 1 -9 16
-29z"/>
<path d="M4756 6743 c-6 -14 -5 -15 5 -6 7 7 10 15 7 18 -3 3 -9 -2 -12 -12z"/>
<path d="M6795 6710 c-4 -6 1 -7 11 -3 12 4 15 3 10 -5 -4 -7 -2 -12 3 -12 6
0 11 7 11 15 0 17 -25 20 -35 5z"/>
<path d="M7106 6698 c-13 -13 -38 -49 -55 -81 l-30 -57 42 33 c68 54 94 67
133 67 33 0 35 2 23 17 -12 14 -68 43 -83 43 -3 0 -16 -10 -30 -22z"/>
<path d="M6810 6655 c0 -8 5 -15 10 -15 6 0 10 7 10 15 0 8 -4 15 -10 15 -5 0
-10 -7 -10 -15z"/>
<path d="M4691 6607 c-11 -19 -21 -38 -21 -43 0 -5 -9 -15 -20 -22 -25 -15
-26 -32 -2 -25 10 2 24 16 30 31 7 15 19 40 28 55 23 41 10 44 -15 4z"/>
<path d="M8472 6615 c0 -16 2 -22 5 -12 2 9 2 23 0 30 -3 6 -5 -1 -5 -18z"/>
<path d="M7114 6596 c-65 -29 -134 -145 -115 -196 3 -9 8 1 12 23 8 53 17 56
14 5 -1 -24 0 -32 2 -18 6 32 68 108 99 122 30 14 74 -4 74 -29 0 -13 -3 -14
-12 -5 -31 31 -106 -9 -126 -68 -12 -32 0 -49 21 -32 16 12 68 22 61 11 -3 -5
0 -9 5 -9 6 0 11 5 11 10 0 7 6 7 18 2 9 -5 25 -8 35 -7 22 4 22 -6 -3 -58
l-21 -42 26 30 c14 17 30 45 36 62 6 18 16 32 22 30 18 -3 12 75 -8 115 -33
65 -84 83 -151 54z"/>
<path d="M6840 6589 c0 -5 5 -7 10 -4 6 3 10 8 10 11 0 2 -4 4 -10 4 -5 0 -10
-5 -10 -11z"/>
<path d="M6841 6550 c-1 -14 -4 -52 -6 -85 -4 -52 -3 -55 6 -27 6 21 14 30 22
26 9 -5 9 -3 0 7 -7 7 -13 19 -13 27 0 8 5 10 13 6 9 -6 9 -5 0 7 -6 8 -13 25
-16 39 l-4 25 -2 -25z"/>
<path d="M6785 6520 c-3 -5 -1 -10 4 -10 6 0 11 5 11 10 0 6 -2 10 -4 10 -3 0
-8 -4 -11 -10z"/>
<path d="M8194 6308 c-10 -229 -8 -805 6 -1473 6 -247 11 -494 12 -547 1 -54
6 -103 11 -110 5 -8 6 6 3 37 -3 28 -8 554 -12 1170 -3 616 -7 1121 -9 1123
-1 1 -6 -89 -11 -200z"/>
<path d="M4594 6493 c-21 -4 -21 -4 -4 -41 10 -21 27 -67 38 -102 12 -36 42
-134 68 -217 45 -144 64 -183 64 -130 0 12 -14 65 -31 117 -17 52 -33 106 -35
120 -3 14 -18 63 -34 109 -17 47 -28 86 -27 87 2 2 11 -12 21 -31 10 -18 32
-39 49 -46 17 -7 45 -27 61 -45 17 -17 48 -37 68 -43 21 -7 37 -18 35 -24 -1
-7 7 -12 18 -12 11 0 30 -6 43 -13 12 -7 27 -10 32 -7 6 3 10 1 10 -5 0 -7 6
-8 18 -1 17 9 48 -10 35 -22 -3 -3 13 -5 36 -4 23 1 43 8 46 15 3 9 10 10 22
3 10 -5 43 -11 73 -14 51 -6 97 4 165 34 134 59 457 171 573 199 31 7 50 16
45 21 -5 5 -190 8 -414 8 -222 -1 -512 -2 -644 -3 -192 0 -245 2 -265 14 -14
8 -31 13 -39 11 -9 -1 -12 3 -8 13 4 9 5 15 4 15 -1 -1 -12 -4 -23 -6z"/>
<path d="M5898 6463 c12 -2 32 -2 45 0 12 2 2 4 -23 4 -25 0 -35 -2 -22 -4z"/>
<path d="M6832 6350 c0 -19 2 -27 5 -17 2 9 2 25 0 35 -3 9 -5 1 -5 -18z"/>
<path d="M2884 6352 c3 -5 6 -72 7 -148 0 -94 5 -150 15 -174 12 -31 12 -33
-1 -16 -8 11 -16 18 -18 15 -2 -2 2 -62 8 -134 8 -104 8 -141 -3 -184 -15 -59
-5 -166 24 -265 17 -60 18 -92 1 -53 l-12 28 -40 -42 c-36 -38 -41 -49 -45
-103 l-5 -61 -154 -52 c-84 -29 -156 -55 -159 -58 -11 -11 61 -4 160 15 92 18
170 26 143 14 -5 -2 -10 -34 -9 -72 1 -91 1 -92 24 -92 24 0 25 -14 8 -87
l-12 -53 -71 -25 c-38 -13 -99 -29 -135 -35 -104 -18 -279 -61 -286 -71 -17
-27 311 20 419 61 28 11 53 20 54 20 2 0 -2 -11 -9 -25 -6 -13 -14 -22 -18
-20 -5 3 -11 -2 -14 -11 -9 -24 -7 -31 4 -14 15 23 13 -6 -10 -176 -29 -211
-60 -507 -60 -564 0 -27 -4 -52 -10 -55 -10 -6 -24 -52 -36 -118 -8 -45 6 -43
61 9 57 53 87 64 40 14 l-40 -43 35 7 c94 18 176 26 207 20 20 -4 50 -22 74
-46 36 -36 43 -39 65 -29 26 11 32 0 15 -28 -13 -20 62 -90 139 -129 l65 -32
-45 6 c-47 6 -260 57 -295 70 -18 6 -18 5 4 -19 12 -14 21 -30 17 -35 -3 -5 5
-19 18 -31 25 -23 274 -87 439 -112 74 -12 86 -20 69 -46 -6 -10 -17 -9 -45 6
-20 10 -49 21 -64 24 -16 3 -59 12 -98 21 -113 26 -137 26 -169 3 -26 -19 -29
-19 -23 -3 4 10 7 19 7 22 0 2 8 1 18 -3 14 -5 15 -4 4 8 -11 12 -15 11 -27
-4 -13 -19 -32 -7 -20 13 3 6 -4 10 -17 10 -13 0 -18 -4 -13 -8 6 -4 21 -23
34 -42 14 -19 66 -87 116 -150 50 -63 101 -131 113 -151 l22 -36 -10 -434 c-6
-239 -14 -465 -19 -504 -5 -38 -12 -110 -16 -160 -4 -49 -8 -92 -10 -95 -2 -3
-6 -37 -10 -75 -10 -110 -17 -121 -60 -91 -11 7 -121 41 -245 75 -124 34 -254
71 -290 83 -61 19 -68 19 -103 5 -32 -14 -40 -14 -64 -2 -16 8 -35 15 -43 15
-8 0 -35 12 -60 26 -39 22 -54 25 -127 23 -93 -3 -111 -20 -43 -40 22 -7 40
-18 40 -25 0 -17 -62 -69 -126 -105 -30 -17 -57 -35 -60 -41 -10 -15 23 -33
127 -67 110 -36 120 -49 62 -80 -21 -11 -54 -33 -73 -49 l-35 -30 21 -29 c36
-49 105 -88 182 -103 92 -17 207 -2 330 42 152 56 289 42 667 -64 293 -82 426
-129 466 -165 73 -66 371 -173 480 -173 24 0 62 5 84 11 22 6 84 17 137 24
170 25 263 54 271 86 3 12 14 19 30 19 14 0 54 9 89 20 104 33 143 26 323 -53
125 -55 178 -71 208 -63 24 6 25 9 17 32 -15 39 -12 226 4 260 7 16 20 44 27
63 8 19 23 54 35 77 11 24 16 41 10 38 -6 -3 -1 3 12 12 21 16 32 41 12 29 -5
-3 -10 -1 -10 4 0 6 5 11 10 11 6 0 10 7 10 15 0 8 5 15 10 15 6 0 10 9 10 20
0 11 4 20 8 20 4 0 8 9 9 20 1 11 9 34 17 51 9 18 13 35 10 40 -3 5 0 9 7 9 7
0 10 3 6 6 -3 3 -1 11 4 18 23 28 60 83 65 99 4 9 10 17 14 17 5 0 13 13 19
30 5 16 7 30 3 30 -4 -1 -40 -31 -80 -68 -68 -62 -76 -74 -107 -157 -65 -175
-144 -431 -152 -493 l-8 -62 -45 30 c-25 17 -57 37 -71 45 -24 13 -27 13 -25
-3 4 -51 -94 25 -120 94 -14 36 -23 45 -75 67 -46 20 -59 22 -59 11 0 -8 -4
-14 -9 -14 -5 0 -9 -10 -9 -22 0 -39 -21 -120 -37 -144 -19 -30 -79 -66 -98
-58 -11 4 -17 30 -23 102 -11 154 8 787 31 997 3 28 8 70 10 95 3 25 8 81 10
125 3 44 7 94 10 110 8 55 17 340 11 334 -3 -3 -13 -89 -21 -190 -9 -101 -22
-249 -30 -328 -19 -179 -35 -621 -35 -974 0 -243 -4 -288 -25 -315 -1 -1 -51
20 -111 48 -60 27 -103 50 -96 50 18 0 46 29 49 50 3 19 -59 40 -237 80 -41 9
-140 40 -220 67 -192 67 -351 116 -487 152 -120 31 -136 38 -128 51 5 8 -77
34 -208 65 -43 10 -80 22 -83 27 -3 4 3 22 11 39 9 17 15 40 12 50 -3 11 -2
19 3 19 14 0 22 53 10 60 -9 5 -9 9 -1 14 6 4 11 22 11 41 0 19 5 37 10 40 6
4 10 14 9 23 -5 33 13 137 27 159 12 19 12 23 -3 32 -14 7 -15 12 -5 24 9 11
10 16 2 19 -7 2 4 11 23 20 l34 16 -4 -41 c-2 -23 -17 -134 -33 -246 -32 -221
-35 -261 -20 -261 6 0 10 10 10 23 0 61 45 337 55 337 6 0 12 15 12 33 0 17 4
45 8 61 5 19 4 27 -2 23 -6 -4 -8 3 -5 18 4 22 5 23 21 8 9 -9 16 -19 16 -22
2 -21 47 -102 59 -107 23 -9 20 -24 -4 -24 -11 0 -20 -4 -20 -8 0 -5 13 -8 30
-7 16 1 27 -2 25 -6 -3 -4 0 -9 6 -11 17 -6 16 -52 -1 -60 -12 -5 -12 -7 3 -7
20 -1 23 -17 5 -24 -10 -4 -10 -7 0 -18 18 -19 15 -32 -5 -25 -16 5 -16 5 0
-8 15 -11 16 -19 8 -34 -8 -15 -7 -23 4 -32 13 -11 15 -6 16 31 1 24 3 55 4
69 9 88 16 139 21 163 3 16 6 44 6 63 0 19 4 34 9 34 6 0 9 -6 8 -12 -4 -22
12 -48 25 -41 17 11 37 12 31 3 -3 -5 5 -15 17 -22 25 -13 30 -15 53 -17 8 0
15 -6 15 -12 0 -6 -7 -8 -16 -5 -10 4 -14 1 -12 -6 3 -7 23 -13 47 -15 23 -1
40 1 37 5 -3 5 1 9 8 9 7 0 13 -6 13 -14 0 -13 -14 -17 -52 -14 -18 1 -18 0
-4 -11 8 -7 18 -24 22 -38 6 -24 5 -24 -8 -6 -8 11 -15 15 -15 8 0 -6 11 -19
25 -28 20 -13 28 -14 40 -4 8 6 20 10 27 7 9 -4 8 -6 -3 -6 -9 -1 -21 -12 -27
-25 -10 -22 -8 -26 11 -32 12 -5 26 -7 30 -6 13 4 38 -26 28 -33 -5 -3 -12 -1
-16 5 -9 15 -71 12 -85 -5 -10 -12 -7 -13 20 -5 24 7 40 5 59 -5 14 -8 21 -14
14 -15 -7 0 -10 -7 -7 -15 4 -8 11 -12 16 -9 6 4 8 1 6 -7 -3 -8 -11 -13 -17
-12 -6 2 -11 -2 -11 -7 0 -17 29 -11 38 7 5 10 8 28 7 41 -1 13 2 25 7 28 9 6
3 -180 -7 -212 -5 -15 -2 -21 9 -21 24 0 99 -35 126 -60 14 -13 32 -23 41 -23
9 0 46 -11 83 -25 36 -14 72 -24 79 -22 6 1 11 -5 9 -13 -3 -12 -1 -13 9 -3
10 11 10 15 -3 25 -13 10 -15 25 -11 65 3 29 9 50 14 47 5 -3 9 0 9 5 0 6 -4
11 -9 11 -5 0 -11 9 -14 20 -3 11 -13 20 -24 20 -19 0 -284 78 -293 86 -9 9
25 23 46 20 12 -2 42 -14 67 -25 25 -12 50 -21 54 -21 4 0 43 -13 86 -29 l77
-29 0 48 c0 26 3 62 6 79 5 23 3 31 -8 31 -8 0 -75 18 -148 40 -154 46 -180
49 -180 20 0 -11 -5 -20 -11 -20 -7 0 -9 9 -6 21 3 12 1 29 -5 39 -9 14 -7 39
7 104 9 47 22 86 27 86 5 0 7 -4 3 -9 -3 -6 -7 -27 -9 -48 -2 -21 -7 -55 -11
-75 l-7 -37 30 11 c24 10 33 9 46 -4 8 -9 37 -24 63 -34 27 -9 82 -30 123 -47
41 -16 83 -29 93 -29 13 1 17 -4 13 -14 -3 -9 -1 -12 4 -9 6 3 10 12 10 20 0
7 6 16 13 18 6 3 2 6 -10 6 -31 1 -30 34 2 55 15 10 22 22 19 31 -8 20 -22 19
-27 -3 -4 -14 -5 -14 -6 3 0 11 8 27 18 35 19 13 19 36 0 25 -5 -4 -9 1 -9 9
0 9 -6 16 -12 16 -25 1 -272 98 -276 108 -1 5 62 -14 142 -43 81 -29 146 -49
146 -45 0 12 44 20 54 10 7 -7 1 -10 -16 -10 -29 0 -45 -15 -28 -25 5 -3 10
-1 10 6 0 7 10 9 29 6 24 -5 28 -3 26 11 -2 9 -4 20 -4 24 -1 5 -7 7 -13 5 -7
-1 -14 9 -15 23 -2 22 -2 23 7 5 6 -15 8 -7 7 29 -2 44 1 51 23 63 24 12 21
17 -10 14 -10 -1 -16 9 -17 29 -2 24 2 30 18 30 14 0 19 -5 16 -14 -6 -15 11
-36 27 -36 6 0 2 6 -8 12 -18 10 -18 11 5 24 22 12 22 13 4 14 -17 0 -17 2 -5
10 8 5 11 10 6 10 -6 0 -5 5 2 12 16 16 15 58 0 58 -7 0 -5 5 5 11 15 9 16 13
6 25 -10 12 -10 14 0 12 13 -3 17 30 24 169 1 24 6 43 11 43 6 0 5 5 -2 12
-15 15 -16 32 -2 23 6 -3 11 -3 11 2 3 14 18 143 18 156 1 4 8 7 16 7 10 0 14
9 13 25 -1 14 -7 25 -13 25 -6 0 -34 11 -62 25 -28 13 -64 27 -80 30 -27 6
-27 6 -9 -9 11 -9 26 -16 33 -16 7 0 13 -7 13 -15 0 -8 -5 -15 -10 -15 -6 0
-5 -6 2 -14 11 -11 14 -11 24 2 9 13 11 13 11 -2 0 -9 -4 -16 -9 -16 -4 0 -9
-12 -9 -27 -1 -21 -3 -23 -6 -7 -3 17 -20 24 -101 42 -98 23 -122 32 -199 76
-42 24 -43 24 -31 3 12 -22 12 -88 0 -97 -4 -3 -8 -35 -10 -72 -1 -36 -9 -85
-17 -108 -18 -52 -19 -49 3 -44 29 8 312 -106 312 -126 0 -4 -15 -4 -32 0 -51
11 -252 82 -262 91 -16 14 -23 11 -31 -13 -4 -13 -9 -30 -12 -38 -3 -8 -7 -30
-10 -47 -3 -18 -9 -33 -14 -33 -5 0 -7 -10 -5 -22 2 -13 -3 -31 -12 -40 -8
-10 -12 -18 -9 -18 3 0 2 -14 -3 -31 -8 -28 -7 -31 10 -26 11 3 37 -3 58 -13
63 -30 174 -76 230 -96 40 -14 52 -23 52 -38 0 -12 -3 -16 -8 -10 -4 6 -23 14
-42 18 -19 3 -90 24 -158 46 -141 45 -147 46 -149 23 -1 -10 -4 -27 -6 -38 -3
-11 -6 -33 -7 -50 -2 -29 -3 -29 -9 -5 -4 18 -13 25 -31 26 -44 1 -102 14
-208 44 -57 17 -108 27 -114 24 -8 -5 -9 72 -4 262 4 148 7 276 8 284 1 8 -1
39 -2 69 -4 48 -2 55 15 56 22 2 157 89 150 97 -3 3 1 5 8 5 8 0 35 14 60 32
26 17 85 50 132 72 47 21 85 42 85 45 0 3 -4 3 -8 0 -5 -3 -27 1 -49 9 -23 8
-53 16 -67 19 -14 3 -30 7 -36 11 -5 3 -28 8 -50 11 -22 3 -57 11 -79 19 -21
7 -42 11 -44 8 -3 -3 -12 -1 -19 3 -14 9 -16 9 -87 19 -24 3 -53 11 -64 17
-14 7 -22 7 -28 -3 -12 -20 -48 29 -49 67 0 16 -6 36 -12 44 -11 12 -10 12 5
1 9 -7 17 -26 17 -41 0 -27 2 -28 93 -45 50 -9 182 -36 292 -60 240 -52 265
-56 265 -39 0 15 -19 30 -50 39 -14 3 -82 24 -152 46 -69 22 -135 42 -145 44
-10 2 -43 11 -73 20 -30 9 -62 18 -70 20 -8 2 -42 14 -75 25 -33 12 -71 24
-85 27 -53 9 -40 21 16 15 53 -5 143 -5 484 2 58 1 111 5 118 9 6 5 12 4 12
-2 0 -9 37 -9 48 0 1 1 5 2 10 3 4 1 26 8 50 16 29 9 49 10 65 3 12 -5 44 -11
71 -12 27 -1 65 -9 85 -17 37 -15 204 -64 207 -61 1 1 -4 27 -12 57 -8 30 -13
63 -10 73 2 9 0 17 -5 17 -5 0 -7 12 -3 28 4 21 3 24 -5 12 -9 -12 -11 -11
-12 10 -1 14 -3 36 -5 50 -11 97 -13 133 -4 113 5 -12 32 -52 61 -89 28 -36
52 -71 53 -78 3 -18 48 -109 62 -126 24 -29 63 -108 56 -116 -4 -4 3 -4 16 -1
12 3 20 2 18 -2 -6 -8 133 -55 140 -48 3 3 -2 30 -11 61 -9 31 -32 125 -50
209 -19 83 -40 178 -48 210 -10 40 -11 57 -3 57 21 -1 111 -135 174 -259 34
-69 67 -130 72 -137 9 -10 53 -97 134 -264 14 -30 46 -73 70 -95 24 -22 46
-49 48 -60 3 -15 9 -8 27 30 l22 50 -60 170 c-132 371 -207 615 -190 615 5 0
9 -7 9 -15 0 -9 37 -54 83 -102 81 -84 143 -133 171 -133 31 0 43 121 18 183
-16 38 -15 57 3 57 19 0 20 -4 -15 63 -16 31 -27 57 -25 57 3 0 22 -17 43 -38
20 -21 64 -53 97 -72 77 -43 162 -109 237 -185 52 -52 57 -55 39 -24 -12 20
-33 69 -47 110 -14 41 -31 80 -36 87 -6 7 -8 15 -5 18 3 3 0 25 -7 47 -7 23
-16 53 -20 67 -8 24 -8 24 8 5 l16 -20 -7 20 c-3 11 -12 29 -20 40 -20 30 -17
48 7 35 11 -6 50 -20 87 -31 74 -23 139 -53 161 -75 17 -17 42 -18 42 -1 0 6
-9 41 -20 75 -25 79 -26 122 -4 122 12 0 15 6 11 21 -11 43 2 50 42 23 26 -17
54 -25 88 -27 28 -1 49 -5 46 -9 -2 -5 12 -8 31 -8 20 0 36 -5 36 -10 0 -7 7
-7 21 0 14 8 17 15 10 23 -18 23 -42 108 -39 140 1 19 11 37 23 45 45 29 -32
-2 -165 -66 -231 -111 -647 -290 -693 -299 -17 -3 -77 -20 -132 -38 -55 -18
-138 -38 -185 -44 -390 -53 -466 -61 -555 -60 l-80 2 100 8 c55 4 179 20 275
34 96 15 207 29 245 32 42 3 118 21 187 44 65 22 133 39 152 39 21 0 36 6 40
15 3 9 36 30 73 47 38 16 113 52 168 78 55 26 127 60 160 75 119 54 174 83
185 96 7 7 120 72 142 81 11 4 18 18 18 33 0 18 5 25 19 25 11 0 21 4 23 8 2
4 31 25 66 46 34 21 90 61 125 90 34 28 74 57 88 65 14 7 43 29 65 49 21 20
64 57 95 83 81 68 170 159 164 169 -2 4 9 25 25 45 17 21 30 40 30 43 0 2 -43
-37 -95 -87 -317 -302 -855 -619 -1338 -787 -283 -99 -823 -179 -1282 -191
-132 -3 -238 -3 -235 0 3 3 109 10 235 17 194 9 473 36 590 55 17 3 59 10 95
16 161 24 197 30 230 39 19 5 80 19 135 31 55 12 141 37 190 56 50 19 98 36
109 38 10 3 23 8 30 13 16 12 160 67 169 64 4 -1 7 3 7 9 0 5 5 7 10 4 6 -3
10 -1 10 4 0 6 7 11 15 11 8 0 15 5 15 11 0 6 7 8 16 5 8 -3 13 -2 9 3 -3 5 8
12 24 16 28 6 99 40 231 113 36 19 99 53 140 75 41 22 103 55 138 74 121 64
280 186 422 323 86 83 69 75 -40 -19 -109 -94 -281 -219 -390 -285 -279 -168
-896 -428 -1115 -470 -336 -65 -587 -90 -1030 -102 -327 -10 -456 10 -809 126
-147 48 -181 54 -141 23 25 -19 342 -173 408 -198 26 -10 45 -20 43 -22 -5 -5
-109 37 -285 116 -114 50 -191 96 -191 112 0 5 -44 52 -99 106 -83 83 -116
124 -184 231 -4 6 -6 12 -4 12 2 0 27 -31 56 -69 63 -86 203 -217 248 -233 18
-7 33 -16 33 -20 0 -4 10 -8 23 -8 12 0 69 -15 127 -33 58 -19 137 -42 177
-52 40 -10 69 -23 66 -28 -3 -5 3 -6 15 -3 24 8 74 -3 67 -14 -2 -4 29 -13 71
-20 121 -21 819 5 851 32 9 7 13 7 13 0 0 -6 13 -9 33 -6 432 60 614 92 664
117 16 8 84 33 153 57 69 23 127 46 128 51 2 5 16 9 30 9 15 0 53 16 85 35 32
19 65 35 73 35 20 0 210 83 294 128 66 35 200 118 320 198 76 51 140 107 140
123 0 6 4 11 8 11 18 0 199 159 292 256 49 50 55 60 25 37 -22 -17 -56 -48
-75 -68 -36 -39 -226 -195 -237 -195 -3 0 2 9 12 20 16 17 16 20 3 15 -13 -5
-15 -2 -11 13 2 11 0 23 -6 26 -6 4 -11 16 -11 27 0 10 -5 19 -11 19 -8 0 -7
6 2 18 11 13 8 12 -11 -3 -14 -11 -27 -22 -30 -26 -3 -3 -62 -44 -131 -91
l-125 -86 -32 -82 c-18 -45 -32 -92 -32 -106 0 -18 -9 -28 -32 -39 -69 -31
-276 -119 -343 -145 -38 -15 -160 -64 -270 -109 -110 -45 -204 -82 -209 -84
-5 -1 -22 29 -38 68 -16 38 -32 73 -36 77 -5 5 -21 4 -38 -1 -44 -14 -216 -22
-208 -9 4 7 0 7 -13 0 -10 -6 -51 -10 -90 -9 -39 2 -70 0 -67 -4 6 -11 -110
-5 -118 6 -5 6 -8 4 -8 -5 -1 -12 -4 -11 -15 3 -13 18 -15 17 -31 -15 -10 -20
-19 -63 -21 -108 -6 -119 -12 -144 -29 -130 -10 9 -14 9 -14 1 0 -12 -363 -13
-655 -2 l-160 6 -24 73 c-13 40 -26 71 -28 68 -9 -9 -10 -42 -2 -63 5 -14 4
-23 -4 -27 -9 -3 -9 -5 1 -5 6 -1 12 -8 12 -16 0 -10 -10 -15 -32 -14 -18 1
-26 3 -17 6 20 5 31 51 15 61 -14 8 -40 86 -40 122 -1 25 -1 25 83 22 47 -2
92 -7 100 -13 14 -8 14 -9 1 -8 -31 3 -50 -1 -50 -12 0 -5 4 -8 9 -5 5 3 11 0
14 -8 4 -10 -3 -13 -24 -11 -34 3 -39 -12 -6 -18 l22 -4 -23 -2 c-17 -1 -22
-6 -18 -18 3 -10 8 -35 12 -56 3 -21 12 -40 18 -42 6 -2 188 -6 404 -8 389 -3
392 -3 393 18 1 11 1 23 0 28 0 4 4 7 10 7 5 0 7 5 4 11 -4 6 -13 8 -20 5 -8
-3 -11 2 -8 15 7 24 19 24 32 2 8 -15 10 -11 10 17 0 19 -3 29 -6 23 -2 -7
-14 -13 -25 -13 -17 0 -19 2 -8 16 11 12 11 15 0 12 -7 -2 -15 3 -18 11 -3 9
0 11 8 6 9 -5 11 -4 6 4 -12 19 2 61 20 61 13 0 14 3 5 13 -6 8 -7 17 -3 22 4
4 -144 4 -328 1 -292 -6 -402 -10 -548 -21 -18 -1 -35 2 -38 6 -11 18 -117 61
-374 154 -144 51 -271 102 -282 112 -11 10 -45 54 -76 98 -74 106 -141 183
-191 220 -41 30 -51 45 -30 45 28 0 113 -89 186 -197 44 -65 89 -125 99 -135
25 -22 167 -81 410 -171 111 -41 212 -81 225 -88 18 -9 111 -12 389 -11 542 3
639 12 933 84 65 16 136 36 158 45 23 9 44 12 47 7 4 -5 18 -15 31 -22 26 -15
26 -17 4 50 -3 11 5 22 24 34 41 26 390 258 445 296 84 59 298 231 298 240 0
11 -77 10 -85 -1 -3 -6 -38 -26 -78 -46 -39 -21 -79 -43 -88 -51 -8 -8 -21
-14 -27 -14 -6 0 -17 -6 -24 -13 -7 -6 -47 -34 -88 -61 -41 -28 -77 -52 -80
-55 -3 -3 -45 -26 -95 -51 -49 -25 -99 -53 -109 -62 -11 -10 -26 -18 -34 -18
-15 0 -91 -73 -108 -103 -9 -16 -18 -6 -63 64 -28 45 -54 79 -57 76 -9 -8 16
-77 37 -109 25 -35 24 -46 -2 -22 -21 19 -83 23 -164 11 -16 -2 -61 -8 -100
-12 -38 -4 -76 -12 -83 -18 -10 -8 -16 -7 -22 2 -5 9 -10 10 -14 2 -4 -6 -18
-8 -31 -5 -12 3 -25 2 -28 -3 -3 -5 -24 -8 -47 -6 -28 2 -39 0 -34 -8 4 -8 0
-8 -15 0 -11 7 -21 8 -21 3 0 -4 -8 -8 -17 -9 -72 -5 -125 -12 -130 -17 -3 -3
-18 -2 -34 1 -20 4 -29 2 -29 -8 0 -10 -3 -10 -12 -1 -14 14 -32 16 -24 3 6
-10 -57 -7 -73 3 -5 4 -29 2 -53 -3 -25 -6 -45 -6 -48 -1 -3 5 -12 5 -20 0
-14 -9 -237 -4 -267 5 -7 2 -14 1 -17 -3 -3 -5 -34 -7 -70 -5 -57 3 -66 1 -66
-15 -1 -16 -1 -16 -11 0 -8 15 -61 43 -219 115 -149 68 -399 209 -430 243 -3
3 -18 12 -34 20 -16 8 -31 21 -34 30 -3 8 -17 30 -31 49 -24 31 -24 33 -4 21
12 -8 26 -23 31 -35 6 -12 37 -31 78 -48 82 -34 511 -257 572 -298 48 -32 56
-35 49 -15 -7 18 160 25 443 19 195 -5 223 -4 300 15 47 12 123 28 170 37 190
36 328 68 388 92 35 14 70 22 78 19 8 -3 26 7 43 24 15 17 32 30 36 30 16 0
228 133 368 231 78 54 186 128 240 165 53 36 99 69 102 73 2 4 -3 17 -11 29
-18 26 -32 22 -102 -32 -118 -90 -387 -276 -400 -276 -4 0 -25 -14 -46 -30
-22 -17 -43 -30 -48 -30 -5 0 -31 -16 -59 -35 -28 -19 -56 -35 -63 -35 -6 0
-22 -12 -35 -25 -13 -14 -27 -25 -32 -25 -5 0 -21 18 -35 40 -36 55 -52 51
-20 -5 21 -36 24 -45 11 -45 -8 0 -15 4 -15 10 0 15 -67 40 -92 33 -28 -6
-150 -29 -198 -36 -45 -7 -90 -16 -113 -23 -55 -17 -297 -34 -297 -22 0 5 -5
8 -11 8 -5 0 -8 -4 -5 -9 4 -5 -34 -7 -91 -4 -54 3 -135 6 -180 7 -44 0 -79 4
-77 7 2 4 -41 6 -96 5 -62 -1 -101 2 -104 9 -2 5 -5 1 -6 -10 -1 -17 -3 -16
-16 8 -14 26 -32 40 -19 15 4 -7 1 -6 -7 3 -12 15 -43 29 -75 35 -13 2 -160
58 -208 79 -41 18 -168 67 -180 70 -5 1 -23 7 -38 13 -16 7 -34 12 -41 12 -6
0 -16 4 -22 8 -5 5 -36 17 -68 28 -41 13 -61 25 -64 39 -3 11 -18 44 -34 73
-36 68 -100 240 -95 255 2 6 11 -13 21 -43 27 -83 57 -150 68 -150 5 0 17 -8
26 -19 32 -35 360 -164 562 -221 63 -18 117 -36 120 -41 5 -8 138 -26 360 -50
131 -15 631 -15 755 -1 l80 9 -115 3 -115 3 129 8 c71 5 143 13 161 19 17 6
39 8 47 5 8 -3 21 1 28 10 7 9 47 32 88 51 40 19 111 55 155 81 121 68 489
293 510 311 28 25 9 79 -58 167 -20 26 -20 0 0 -39 15 -28 14 -29 -32 -72 -26
-24 -51 -44 -55 -44 -10 0 -28 -14 -66 -51 -15 -15 -46 -36 -70 -48 -27 -14
-40 -26 -36 -34 4 -7 4 -9 -1 -5 -4 4 -22 0 -39 -9 -57 -29 -66 -33 -80 -33
-7 0 -19 -6 -25 -14 -6 -8 -24 -16 -39 -19 -52 -10 -60 -13 -74 -25 -8 -6 -18
-9 -21 -5 -4 3 -7 1 -7 -5 0 -7 -8 -12 -19 -12 -10 0 -24 -6 -30 -14 -6 -7
-25 -16 -42 -20 -21 -4 -29 -10 -26 -20 3 -8 -2 -16 -15 -19 -11 -3 -17 -10
-13 -16 3 -6 -1 -14 -9 -17 -9 -3 -13 -10 -10 -15 3 -5 1 -9 -4 -9 -6 0 -30
32 -55 70 -47 74 -69 75 -37 2 22 -48 20 -50 -19 -21 -23 17 -32 19 -50 10
-15 -8 -27 -9 -41 -1 -16 9 -19 8 -13 -6 4 -12 3 -15 -6 -10 -7 5 -25 2 -42
-4 -22 -9 -32 -10 -43 -1 -11 9 -17 8 -28 -3 -8 -8 -21 -14 -29 -13 -35 3
-214 -27 -343 -58 -11 -2 -25 0 -33 6 -10 9 -13 7 -13 -6 0 -12 -5 -15 -17
-10 -21 9 -42 13 -282 55 -101 17 -207 33 -236 34 -28 2 -61 9 -72 15 -12 6
-59 23 -105 37 -106 33 -294 112 -421 176 -65 32 -102 46 -107 39 -3 -6 -12
13 -19 41 -7 29 -35 120 -62 202 -27 82 -47 151 -46 153 6 5 92 -221 89 -234
-1 -6 2 -14 7 -18 6 -3 8 -12 4 -20 -3 -8 0 -15 6 -15 6 0 11 7 11 16 0 9 6
14 13 11 6 -2 11 -10 9 -17 -1 -7 5 -19 15 -27 10 -8 12 -11 4 -7 -9 4 -12 2
-9 -7 2 -7 60 -44 129 -80 68 -37 138 -75 154 -85 30 -17 70 -31 275 -94 139
-43 157 -46 349 -60 121 -9 183 -9 240 -1 130 19 492 62 576 68 43 4 71 9 62
12 -21 8 -169 -3 -322 -24 -60 -8 -121 -15 -135 -14 -34 1 274 46 377 55 57 5
92 3 112 -5 35 -15 71 -1 71 27 0 12 22 29 66 50 l66 33 -18 22 c-80 96 -137
137 -192 137 -16 0 -42 7 -58 15 -26 12 -36 12 -84 -1 -30 -8 -62 -19 -70 -23
-9 -5 -41 -14 -72 -21 -98 -22 -136 -49 -230 -160 -112 -132 -117 -137 -78
-70 76 131 193 284 355 468 26 28 44 52 41 52 -8 0 -130 -107 -231 -204 -49
-47 -93 -86 -97 -86 -4 0 -30 -16 -57 -35 -62 -45 -128 -55 -186 -30 -22 10
-44 17 -48 16 -4 -1 -43 33 -85 75 -103 102 -167 162 -158 147 13 -23 -12 -13
-32 12 -23 29 -40 31 -68 10 -19 -14 -19 -14 1 -16 11 -1 24 -1 29 0 5 1 4 -4
-3 -12 -9 -12 -8 -16 4 -21 8 -3 15 -13 15 -21 0 -12 6 -15 23 -11 12 3 16 3
9 0 -9 -4 19 -39 82 -103 52 -53 105 -109 117 -126 12 -16 56 -66 98 -109 91
-96 71 -83 -62 40 l-98 90 -62 -1 c-34 -1 -74 -5 -88 -9 -23 -7 -29 -3 -45 23
-24 40 -33 43 -93 23 -49 -15 -55 -15 -123 5 -65 19 -74 20 -95 6 -13 -9 -26
-27 -29 -42 -17 -79 -20 -80 -42 -9 -12 37 -31 129 -43 203 -13 74 -26 130
-30 124 -10 -16 -70 5 -96 34 -11 12 -47 65 -79 117 -42 68 -59 89 -62 75 -2
-11 -6 -27 -9 -35 -3 -8 -7 -38 -9 -66 -2 -27 -8 -63 -14 -78 -5 -15 -10 -42
-10 -59 -1 -23 -3 -28 -9 -17 -5 8 -14 80 -20 160 -6 80 -16 169 -22 198 -13
64 -5 82 9 20 8 -34 10 -37 11 -15 1 19 5 26 13 21 15 -9 -7 20 -52 69 -33 37
-80 71 -66 49z m2896 -662 c0 -5 -7 -10 -16 -10 -8 0 -12 5 -9 10 3 6 10 10
16 10 5 0 9 -4 9 -10z m-1997 -327 c-7 -2 -21 -2 -30 0 -10 3 -4 5 12 5 17 0
24 -2 18 -5z m65 -10 c-10 -2 -26 -2 -35 0 -10 3 -2 5 17 5 19 0 27 -2 18 -5z
m520 0 c-10 -2 -26 -2 -35 0 -10 3 -2 5 17 5 19 0 27 -2 18 -5z m-430 -10
c-10 -2 -28 -2 -40 0 -13 2 -5 4 17 4 22 1 32 -1 23 -4z m120 -10 c-16 -2 -40
-2 -55 0 -16 2 -3 4 27 4 30 0 43 -2 28 -4z m-231 -159 c-3 -3 -12 -4 -19 -1
-8 3 -5 6 6 6 11 1 17 -2 13 -5z m-860 -317 c7 -15 11 -27 9 -27 -10 0 -54 81
-60 110 -7 34 -6 33 16 -10 13 -25 29 -58 35 -73z m119 -197 c29 -41 65 -92
82 -112 49 -62 56 -24 17 92 -27 79 -34 132 -8 65 8 -22 16 -44 17 -50 1 -5
10 -32 19 -60 9 -27 16 -63 14 -79 -3 -37 42 -71 108 -80 25 -4 45 -11 45 -15
0 -12 80 -37 124 -40 14 0 31 -7 38 -13 7 -7 18 -13 23 -13 6 -1 37 -9 70 -19
33 -10 65 -19 70 -20 6 0 12 -4 15 -8 3 -4 24 -15 45 -23 l40 -15 -35 5 c-37
5 -144 38 -372 112 -118 38 -144 50 -187 89 -66 59 -232 304 -231 341 0 4 13
-12 28 -37 15 -25 50 -79 78 -120z m65 -367 c13 -16 12 -17 -3 -4 -17 13 -22
21 -14 21 2 0 10 -8 17 -17z m834 -233 c18 -5 -3 -6 -50 -3 -44 3 -82 7 -84 9
-8 7 104 2 134 -6z m525 -150 c0 -6 -30 -9 -72 -8 l-73 2 70 6 c39 4 71 7 73
8 1 1 2 -2 2 -8z m-1153 -376 c-3 -3 -12 -4 -19 -1 -8 3 -5 6 6 6 11 1 17 -2
13 -5z m-207 -128 c0 -11 -19 -15 -25 -6 -3 5 1 10 9 10 9 0 16 -2 16 -4z
m412 -156 c-6 -41 -12 -38 -12 6 0 19 4 33 8 30 5 -3 7 -19 4 -36z m65 -2 c-3
-8 -6 -5 -6 6 -1 11 2 17 5 13 3 -3 4 -12 1 -19z m-44 -75 c-20 -7 -15 -23 7
-23 11 0 20 -4 20 -10 0 -13 -3 -13 -35 2 -29 13 -33 35 -7 40 20 5 32 -3 15
-9z m-133 -3 c0 -5 -2 -10 -4 -10 -3 0 -8 5 -11 10 -3 6 -1 10 4 10 6 0 11 -4
11 -10z m40 -11 c0 -6 -4 -7 -10 -4 -5 3 -10 11 -10 16 0 6 5 7 10 4 6 -3 10
-11 10 -16z m167 -15 c-3 -3 -12 -4 -19 -1 -8 3 -5 6 6 6 11 1 17 -2 13 -5z
m-103 -28 c-4 -11 1 -13 18 -10 13 2 16 1 8 -2 -8 -3 -21 -13 -27 -22 -11 -14
-13 -13 -13 9 0 14 3 29 7 32 10 11 13 8 7 -7z m86 6 c0 -5 -7 -9 -15 -9 -8 0
-12 4 -9 9 3 4 9 8 15 8 5 0 9 -4 9 -8z m-16 -64 c-3 -4 -12 -8 -20 -8 -20 0
-18 -18 4 -23 13 -4 11 -5 -5 -6 -14 -1 -23 5 -23 14 0 8 -5 15 -11 15 -6 0
-9 -6 -6 -13 2 -6 -1 -17 -8 -24 -9 -8 -12 -4 -13 18 -1 25 3 29 26 30 17 1
21 3 10 6 -10 2 -18 8 -18 12 0 5 15 3 34 -3 19 -6 32 -14 30 -18z m-160 10
c-5 -8 -2 -9 10 -5 16 6 17 -6 13 -174 -3 -141 -7 -183 -18 -190 -12 -7 -12
-9 0 -9 19 0 10 -138 -10 -151 -12 -7 -12 -9 0 -9 10 0 12 -10 7 -42 -4 -24
-7 -65 -7 -93 -1 -27 -3 -40 -6 -27 -2 12 -8 22 -11 22 -4 0 -8 38 -9 84 0 47
-4 89 -8 95 -3 6 -2 11 2 11 16 0 10 50 -6 51 -11 0 -12 2 -3 6 6 2 9 9 6 15
-4 6 0 14 7 19 10 6 10 9 2 9 -10 0 -10 6 -1 26 9 20 9 30 0 45 -9 14 -9 19
-1 19 8 0 8 4 0 14 -9 11 -7 15 10 19 17 4 20 9 12 19 -15 20 -23 48 -13 48 5
0 11 -8 14 -17 3 -10 3 0 0 22 -3 22 -13 49 -22 59 -16 18 -16 19 0 13 23 -8
32 7 13 23 -11 9 -12 15 -2 25 8 9 16 10 25 3 9 -8 12 -6 12 5 0 9 -9 18 -19
22 -11 3 -25 12 -32 21 -10 12 -9 13 5 8 11 -4 16 -1 16 10 0 9 5 16 11 16 5
0 7 -5 3 -12z m201 -59 c-29 -11 -35 -10 -35 5 0 9 8 12 27 8 25 -5 25 -6 8
-13z m98 14 c-7 -2 -19 -2 -25 0 -7 3 -2 5 12 5 14 0 19 -2 13 -5z m-185 -27
c-19 -14 -26 -42 -8 -31 5 3 7 0 4 -9 -3 -9 3 -20 15 -28 28 -17 27 -32 -1
-16 -13 7 -26 11 -30 10 -5 -1 -8 3 -8 9 0 5 -6 7 -12 4 -7 -4 -6 -1 3 7 9 7
14 19 11 27 -3 8 3 20 14 28 23 17 34 16 12 -1z m-6 -114 c-2 -16 8 -34 35
-59 21 -20 32 -33 26 -29 -8 5 -13 1 -13 -9 0 -15 -4 -14 -33 4 -26 16 -34 17
-34 6 0 -8 4 -12 9 -9 4 3 8 -1 8 -9 0 -7 11 -20 25 -27 29 -16 24 -30 -10
-24 -13 2 -27 0 -30 -6 -6 -9 14 -14 43 -11 22 3 13 -18 -15 -33 -24 -12 -26
-15 -10 -21 9 -4 24 -5 31 -2 10 4 13 1 10 -7 -3 -8 5 -22 18 -31 22 -16 17
-16 -24 0 -11 4 -18 3 -18 -4 0 -6 -15 -11 -32 -11 l-33 -1 39 -14 c21 -7 44
-19 50 -25 8 -8 7 -10 -6 -5 -11 5 -20 -1 -29 -17 -6 -13 -17 -27 -23 -31 -6
-4 1 -5 17 -1 17 4 27 2 27 -5 0 -6 -17 -11 -37 -12 l-38 -1 33 -14 c17 -8 32
-17 32 -20 0 -3 -4 -3 -9 0 -5 3 -12 -1 -15 -10 -4 -11 -13 -14 -27 -11 -15 4
-23 0 -26 -14 -3 -10 -8 -19 -12 -19 -10 0 0 144 11 158 6 6 6 12 1 12 -5 0
-6 34 -2 83 4 45 11 122 14 170 6 83 8 88 28 85 17 -2 21 -9 19 -26z m33 -2
c-3 -5 -10 -10 -16 -10 -5 0 -9 5 -9 10 0 6 7 10 16 10 8 0 12 -4 9 -10z
m-160 -68 c-3 -3 -11 0 -18 7 -9 10 -8 11 6 5 10 -3 15 -9 12 -12z m836 -6
c105 -40 185 -78 172 -83 -9 -3 -176 40 -283 74 -11 3 -9 8 10 18 32 18 28 19
101 -9z m-621 -117 c0 -4 -7 -6 -15 -3 -8 4 -15 10 -15 15 0 4 7 6 15 3 8 -4
15 -10 15 -15z m-20 -105 c0 -2 -7 -4 -15 -4 -8 0 -15 4 -15 10 0 5 7 7 15 4
8 -4 15 -8 15 -10z m546 -87 c47 -11 202 -69 230 -85 41 -24 -14 -12 -158 35
-81 26 -148 52 -148 57 0 8 25 5 76 -7z m261 -9 c-3 -8 -6 -5 -6 6 -1 11 2 17
5 13 3 -3 4 -12 1 -19z m-1000 -164 c-3 -3 -12 -4 -19 -1 -8 3 -5 6 6 6 11 1
17 -2 13 -5z m960 -146 c-3 -8 -6 -5 -6 6 -1 11 2 17 5 13 3 -3 4 -12 1 -19z
m-549 -57 c3 -8 -1 -12 -9 -9 -7 2 -15 10 -17 17 -3 8 1 12 9 9 7 -2 15 -10
17 -17z m92 -56 c0 -8 -4 -15 -10 -15 -5 0 -7 7 -4 15 4 8 8 15 10 15 2 0 4
-7 4 -15z m-35 -5 c-4 -6 -10 -8 -15 -5 -4 3 -10 -1 -13 -7 -2 -7 -8 -9 -13
-5 -5 4 -2 12 6 17 20 13 43 13 35 0z m15 -80 c0 -5 -4 -10 -10 -10 -5 0 -10
5 -10 10 0 6 5 10 10 10 6 0 10 -4 10 -10z m-576 -306 c14 -5 17 -4 12 5 -5 8
4 6 25 -4 44 -22 50 -30 19 -21 -14 4 -32 8 -41 8 -9 0 -34 6 -55 14 -33 13
-34 14 -9 10 17 -2 39 -8 49 -12z m161 -30 c28 -9 57 -17 65 -18 9 -1 22 -6
30 -11 8 -5 20 -10 25 -11 22 -4 289 -94 294 -100 13 -13 -325 92 -434 135
-61 24 -49 27 20 5z m1757 -423 c43 -16 96 -43 120 -60 27 -20 44 -27 49 -20
3 6 9 1 12 -12 4 -13 5 -25 3 -26 -2 -2 -23 7 -47 21 -24 13 -85 40 -135 60
-55 23 -91 43 -91 52 0 18 0 19 89 -15z"/>
<path d="M3558 2623 c7 -3 16 -2 19 1 4 3 -2 6 -13 5 -11 0 -14 -3 -6 -6z"/>
<path d="M7005 6330 c-14 -22 74 -114 120 -126 13 -3 34 -2 47 2 20 6 17 9
-27 21 -58 17 -69 25 -106 76 -15 21 -30 33 -34 27z"/>
<path d="M7073 6302 c28 -31 66 -37 90 -13 20 19 20 19 -20 14 -23 -3 -50 0
-64 7 -24 13 -24 13 -6 -8z"/>
<path d="M6832 6290 c0 -14 2 -19 5 -12 2 6 2 18 0 25 -3 6 -5 1 -5 -13z"/>
<path d="M7239 6253 c-13 -16 -12 -17 4 -4 9 7 17 15 17 17 0 8 -8 3 -21 -13z"/>
<path d="M6827 6246 c-4 -10 -7 -30 -6 -44 1 -25 1 -25 10 6 11 37 7 67 -4 38z"/>
<path d="M7190 6195 c-91 -30 -208 -67 -260 -81 -52 -14 -99 -31 -105 -36 -7
-7 -3 -8 10 -4 87 25 273 83 385 119 74 25 144 47 155 50 l20 5 -20 0 c-11 1
-94 -23 -185 -53z"/>
<path d="M6910 6220 c0 -5 5 -10 10 -10 6 0 10 5 10 10 0 6 -4 10 -10 10 -5 0
-10 -4 -10 -10z"/>
<path d="M4990 6190 c0 -5 5 -10 11 -10 5 0 7 5 4 10 -3 6 -8 10 -11 10 -2 0
-4 -4 -4 -10z"/>
<path d="M7235 6185 l-30 -14 30 6 c17 3 37 9 45 14 27 15 -11 10 -45 -6z"/>
<path d="M6607 6099 c12 -12 25 -20 28 -17 3 3 -7 13 -22 23 l-28 17 22 -23z"/>
<path d="M3260 6038 c8 -9 36 -20 62 -27 73 -17 90 -12 23 8 -33 10 -69 22
-80 26 -18 7 -18 6 -5 -7z"/>
<path d="M4810 5911 c0 -4 33 -43 73 -87 40 -43 111 -127 156 -186 46 -60 88
-108 93 -108 6 0 52 19 104 41 80 35 92 44 82 57 -7 8 -60 38 -119 67 -58 29
-170 91 -247 138 -78 48 -142 83 -142 78z"/>
<path d="M6095 5490 c-3 -5 -1 -10 4 -10 6 0 11 5 11 10 0 6 -2 10 -4 10 -3 0
-8 -4 -11 -10z"/>
<path d="M6862 5371 c-68 -43 -166 -103 -219 -132 -122 -69 -158 -102 -171
-156 -13 -57 0 -56 77 5 33 26 94 72 137 102 199 142 274 204 295 243 5 9 8
17 7 17 -2 -1 -58 -36 -126 -79z"/>
<path d="M6230 5264 c0 -5 7 -18 15 -28 8 -11 15 -16 15 -10 0 5 -7 18 -15 28
-8 11 -15 16 -15 10z"/>
<path d="M6295 5023 c-18 -3 -68 -23 -150 -59 -16 -7 -118 -55 -225 -107 -107
-52 -270 -129 -362 -172 -129 -60 -168 -82 -168 -96 0 -21 15 -25 25 -8 4 6
13 8 20 5 7 -2 18 1 25 7 10 9 11 9 6 0 -5 -9 0 -13 16 -14 23 0 23 0 2 -9
-20 -8 -39 -36 -35 -53 1 -5 -3 -6 -8 -3 -19 12 -31 -20 -21 -55 10 -36 39
-82 40 -64 0 6 12 12 28 13 15 1 32 9 38 17 6 8 16 15 23 15 13 0 48 19 74 39
9 8 20 11 23 8 10 -9 45 12 39 23 -3 6 1 7 10 3 10 -3 20 -2 24 3 11 16 59 44
76 44 8 0 14 3 14 8 -3 19 2 25 11 12 6 -9 10 -10 10 -3 0 11 38 33 165 95
158 77 212 105 229 121 11 9 23 17 27 17 15 0 51 45 76 95 14 28 36 62 50 77
14 14 22 31 19 37 -7 11 -61 13 -101 4z"/>
<path d="M7561 4975 c-1 -11 8 -33 19 -50 11 -16 20 -25 20 -19 0 6 -3 14 -7
18 -5 4 -13 22 -20 39 -8 23 -12 26 -12 12z"/>
<path d="M6898 4838 c-34 -35 -91 -88 -125 -120 l-62 -56 41 2 c35 2 43 6 48
27 4 13 35 53 69 89 61 63 107 120 98 120 -3 0 -34 -28 -69 -62z"/>
<path d="M4675 4860 c-27 -7 -27 -8 -5 -8 14 0 36 4 50 8 20 6 21 8 5 8 -11 0
-33 -4 -50 -8z"/>
<path d="M4603 4843 c9 -2 23 -2 30 0 6 3 -1 5 -18 5 -16 0 -22 -2 -12 -5z"/>
<path d="M2140 4625 l-55 -13 89 1 c61 2 91 6 94 15 5 16 -53 14 -128 -3z"/>
<path d="M6654 4616 c-17 -14 -25 -28 -20 -33 5 -4 11 -2 13 5 3 6 11 12 18
12 13 0 29 29 21 37 -2 2 -17 -7 -32 -21z"/>
<path d="M6815 4580 c-3 -5 3 -10 14 -10 11 0 55 -14 98 -31 157 -63 336 -129
340 -125 4 3 -426 176 -439 176 -4 0 -10 -4 -13 -10z"/>
<path d="M6484 4508 l-101 -61 27 -24 c15 -13 35 -23 45 -23 9 0 14 -4 11 -8
-2 -4 10 -6 29 -4 33 4 33 5 40 67 4 39 12 65 20 69 11 4 42 47 33 46 -2 -1
-49 -28 -104 -62z"/>
<path d="M5400 4551 c0 -6 4 -13 10 -16 6 -3 7 1 4 9 -7 18 -14 21 -14 7z"/>
<path d="M1773 4431 c-36 -18 -42 -31 -15 -31 10 0 28 11 40 25 25 28 21 29
-25 6z"/>
<path d="M7290 4400 c8 -5 20 -10 25 -10 6 0 3 5 -5 10 -8 5 -19 10 -25 10 -5
0 -3 -5 5 -10z"/>
<path d="M1604 4322 c-33 -26 -87 -66 -121 -89 -47 -30 -59 -43 -51 -51 23
-23 45 -11 143 82 107 100 126 139 29 58z"/>
<path d="M7400 4280 c-9 -6 -10 -10 -3 -10 6 0 15 5 18 10 8 12 4 12 -15 0z"/>
<path d="M2190 4175 c-14 -8 -55 -26 -92 -41 -38 -14 -68 -30 -68 -35 0 -13 6
-12 53 12 23 12 64 29 91 39 28 9 52 22 54 28 5 16 -7 15 -38 -3z"/>
<path d="M1313 4095 c-33 -33 -53 -63 -53 -77 0 -23 34 -88 46 -88 3 0 20 14
37 32 30 29 32 37 36 110 2 43 -1 78 -5 78 -5 0 -33 -25 -61 -55z"/>
<path d="M6500 4126 c0 -16 395 -125 407 -112 3 3 -8 8 -23 12 -23 5 -284 76
-366 100 -10 3 -18 3 -18 0z"/>
<path d="M1910 4071 c-104 -42 -197 -89 -203 -103 -3 -8 -2 -21 3 -28 6 -10
13 -9 36 3 97 50 226 107 234 102 6 -3 10 5 10 19 0 31 -16 33 -80 7z"/>
<path d="M1985 3977 c-13 -65 27 -347 49 -347 7 0 12 -30 13 -81 2 -83 19
-129 47 -129 18 0 24 28 27 114 2 53 -1 70 -13 77 -20 11 -39 72 -78 249 -38
168 -36 162 -45 117z"/>
<path d="M1134 3952 l-52 -47 19 -35 c10 -19 24 -61 30 -93 7 -32 17 -60 23
-62 6 -2 23 -6 37 -9 27 -6 49 -41 49 -78 0 -12 9 -32 21 -44 l20 -22 -32 -56
c-17 -31 -30 -58 -28 -59 10 -6 139 -120 179 -157 25 -23 61 -54 80 -69 19
-14 64 -55 100 -91 36 -36 101 -97 145 -136 113 -101 258 -254 241 -254 -17 0
-88 55 -141 110 -51 53 -184 167 -340 293 -21 18 -88 78 -149 135 -100 93
-136 118 -136 93 0 -5 11 -23 25 -39 33 -39 18 -49 -25 -17 -25 18 -41 23 -64
19 -45 -8 -71 -37 -104 -120 l-30 -74 71 -44 c83 -52 305 -159 422 -204 108
-41 286 -95 292 -88 8 7 43 -13 43 -24 0 -16 -29 -12 -112 15 -42 13 -107 27
-145 31 -41 4 -92 17 -128 34 -33 16 -98 45 -145 65 -47 21 -124 57 -171 81
-47 24 -91 44 -98 44 -7 0 2 -15 18 -32 28 -30 38 -48 27 -48 -3 0 -11 6 -18
13 -35 33 -122 97 -133 97 -21 0 -52 44 -65 95 -17 65 -24 72 -55 55 -30 -16
-31 -19 -3 -66 15 -26 21 -50 19 -81 -2 -38 2 -48 31 -76 64 -64 300 -184 477
-243 68 -23 203 -82 158 -69 -10 2 -55 14 -100 24 -156 38 -281 88 -498 197
-49 24 -96 44 -104 44 -9 0 -24 -14 -33 -30 -10 -19 -36 -40 -64 -53 -27 -12
-48 -26 -48 -32 0 -9 118 -123 196 -188 60 -51 180 -118 244 -137 54 -16 184
-46 395 -91 22 -4 72 -15 110 -24 39 -8 113 -24 165 -35 52 -10 124 -29 158
-41 56 -19 66 -20 78 -7 17 17 74 283 74 346 0 39 -7 51 -77 136 -43 50 -127
152 -188 225 -113 137 -153 183 -313 362 -106 118 -171 187 -199 210 -15 12
-23 39 -32 110 -7 52 -22 136 -32 188 -10 51 -19 95 -19 97 0 12 -20 -2 -66
-44z"/>
<path d="M2573 3925 c-18 -8 -74 -25 -125 -39 -80 -21 -219 -75 -163 -63 62
13 345 103 345 110 0 11 -21 8 -57 -8z"/>
<path d="M1576 3865 c-141 -102 -156 -122 -86 -112 43 6 142 58 122 65 -17 5
-15 19 6 26 9 3 23 9 31 12 8 4 11 2 7 -4 -3 -5 5 -12 17 -16 22 -5 37 -26 51
-70 4 -10 9 -16 12 -13 7 6 -23 96 -38 114 -5 7 -7 16 -4 22 8 13 -4 41 -18
40 -6 0 -51 -29 -100 -64z"/>
<path d="M6905 3882 c-11 -15 -19 -31 -17 -35 1 -5 -2 -6 -7 -3 -11 7 -132
-124 -125 -136 3 -5 1 -7 -4 -6 -20 6 -267 -303 -350 -437 -79 -129 -98 -173
-126 -303 -15 -68 -37 -151 -47 -184 -11 -33 -18 -62 -15 -65 4 -5 20 45 91
280 15 49 28 87 30 85 8 -7 -56 -262 -95 -378 l-42 -125 12 -80 c20 -140 38
-206 205 -785 70 -244 69 -241 50 -208 -9 16 -27 29 -47 34 -18 4 -28 9 -21
11 6 2 -6 22 -28 46 -22 23 -42 54 -46 69 -3 15 -14 30 -24 33 -10 3 -16 12
-13 20 3 7 -4 23 -16 35 -14 14 -20 30 -17 45 2 13 1 24 -2 23 -18 -2 -22 4
-11 17 7 8 8 15 3 15 -5 0 -10 11 -11 26 -1 14 -6 33 -11 42 -5 9 -12 46 -16
82 -4 36 -10 70 -13 75 -8 12 -9 18 -16 98 -4 37 -13 67 -21 73 -12 9 -14 34
-11 135 5 120 5 123 -10 84 -21 -53 -19 -101 11 -340 34 -274 55 -528 55 -662
0 -102 -2 -113 -18 -113 -22 0 -52 34 -52 60 0 13 -5 18 -15 14 -9 -4 -15 0
-15 8 0 8 -10 23 -22 34 -12 10 -18 13 -14 6 4 -7 1 -12 -9 -12 -9 0 -14 4
-10 9 3 5 -8 18 -25 27 -16 10 -30 24 -30 32 0 7 -4 10 -10 7 -17 -10 -34 6
-19 17 11 7 11 11 2 15 -7 2 -13 9 -13 15 0 6 -8 17 -17 24 -17 13 -17 13 1
14 15 0 16 3 7 14 -10 12 -9 20 5 41 15 23 15 25 0 19 -9 -3 -16 -1 -16 5 0 6
7 11 15 11 10 0 14 7 11 23 -3 12 -5 33 -5 46 -1 29 -8 25 -15 -9 -14 -65 -91
-325 -148 -499 -22 -68 -33 -90 -39 -78 -14 24 -39 154 -43 225 -3 36 -10 68
-16 72 -19 12 -7 43 25 65 20 13 29 27 27 39 -2 10 0 16 6 12 14 -8 21 15 11
35 -6 11 -3 21 7 30 12 9 12 14 2 20 -8 5 -3 11 17 19 l30 12 -25 10 -25 10
23 9 c26 10 28 26 5 51 -15 17 -15 18 5 18 15 0 20 5 16 15 -4 8 1 17 10 21 9
3 16 12 16 19 0 7 7 18 15 25 9 7 14 19 11 27 -3 7 1 13 10 13 9 0 12 5 8 11
-3 6 0 15 7 20 10 6 11 9 2 9 -7 0 -13 5 -13 10 0 6 7 10 15 10 8 0 15 5 15
11 0 6 7 9 15 6 18 -7 30 9 14 19 -8 4 -7 9 2 15 12 8 12 10 0 18 -18 11 -5
31 20 31 21 0 26 16 7 23 -10 4 -9 8 2 17 11 9 12 13 3 17 -19 7 -16 20 7 26
18 5 27 34 21 70 0 4 9 7 20 7 18 0 20 2 8 16 -10 13 -10 17 2 25 8 5 10 9 5
9 -5 0 -4 6 1 13 6 6 10 24 9 40 -1 15 2 27 6 27 4 0 8 12 8 26 0 15 13 41 30
61 17 18 30 40 30 47 0 7 6 26 14 42 8 16 16 43 18 59 2 17 9 36 16 44 7 7 11
20 8 27 -3 7 -1 16 3 19 5 2 12 22 16 42 4 21 12 44 17 51 6 7 8 15 5 19 -4 3
-2 11 3 18 5 6 10 26 12 43 1 18 5 32 8 32 5 0 10 36 14 87 0 11 4 19 9 16 4
-2 7 10 7 27 l0 32 -62 -67 c-86 -92 -90 -99 -153 -280 -97 -278 -125 -356
-182 -510 -32 -83 -57 -168 -57 -190 -1 -22 -22 -101 -48 -175 -99 -286 -151
-456 -152 -492 0 -20 -3 -35 -7 -32 -8 5 -104 -224 -96 -232 9 -10 67 26 67
41 0 17 3 17 110 19 64 1 80 5 114 28 55 39 93 48 251 60 77 5 154 16 172 24
50 22 311 19 448 -7 61 -11 135 -24 165 -30 30 -5 96 -18 145 -30 50 -11 110
-24 135 -29 25 -5 124 -26 220 -48 571 -130 762 -157 1065 -149 211 6 465 26
465 38 0 4 -21 13 -47 20 -47 13 -44 13 107 20 151 6 167 9 348 61 23 7 42 16
42 20 0 4 -4 8 -8 8 -13 0 -12 38 1 48 7 6 46 24 87 40 61 24 75 34 78 53 7
68 14 89 27 89 8 0 15 4 15 10 0 14 63 38 121 46 64 9 59 24 -17 48 -98 30
-151 57 -185 92 -28 29 -40 34 -80 34 -33 0 -49 5 -53 16 -3 8 -10 13 -15 9
-5 -3 -12 3 -16 14 -3 10 -14 26 -25 36 -10 9 10 -34 45 -96 36 -62 65 -122
65 -132 0 -18 -5 -19 -52 -13 -218 29 -302 36 -440 36 -87 0 -158 -2 -158 -3
0 -2 34 -66 75 -142 66 -123 81 -155 73 -155 -2 0 -120 16 -264 35 -143 19
-323 37 -400 40 -128 4 -239 14 -557 46 -64 7 -115 14 -113 16 4 5 329 -23
391 -33 75 -11 297 -23 315 -16 20 7 17 11 -28 52 -27 25 -54 46 -61 48 -15 3
-57 45 -54 54 2 4 -4 5 -11 2 -8 -3 -44 13 -81 35 -37 23 -71 41 -76 41 -15 0
-10 15 11 30 20 14 29 37 11 25 -17 -10 -216 -34 -488 -60 -306 -29 -405 -31
-198 -5 77 10 167 22 200 28 33 6 103 16 155 21 128 15 293 42 303 51 5 4 3
11 -4 15 -8 6 -10 4 -4 -5 5 -9 4 -11 -4 -6 -6 4 -10 15 -9 24 2 9 -3 17 -9
18 -7 1 -17 2 -23 3 -5 0 -7 8 -4 15 6 15 -154 211 -164 201 -3 -3 2 -13 11
-23 10 -10 17 -22 17 -25 0 -4 30 -36 66 -72 36 -36 63 -69 60 -73 -3 -5 -19
-7 -35 -4 -17 2 -29 8 -26 12 5 8 -47 30 -72 30 -8 0 -26 8 -39 19 -23 18 -69
22 -92 7 -7 -4 -8 2 -3 22 5 15 5 49 1 74 -4 27 -2 54 4 65 5 10 -14 -2 -43
-27 -95 -82 -215 -170 -299 -221 -78 -48 -193 -100 -216 -98 -11 0 45 32 110
62 17 8 65 47 105 86 41 39 77 71 82 71 8 0 20 9 52 38 27 24 6 31 -83 25 -72
-5 -94 -3 -122 12 -49 25 -63 42 -57 68 5 19 2 18 -21 -9 -15 -17 -49 -59 -77
-94 -71 -90 -119 -141 -105 -111 17 34 111 177 159 241 23 30 49 66 59 79 9
14 24 32 33 40 8 9 26 32 40 51 l24 35 -30 -23 c-17 -12 -49 -37 -72 -55 -23
-18 -68 -69 -100 -114 -74 -104 -236 -289 -241 -274 -2 6 9 57 24 113 64 245
76 319 39 237 -30 -65 -98 -166 -131 -195 -7 -6 -29 -71 -48 -145 -19 -74 -39
-145 -45 -159 -9 -22 -10 -20 -6 16 2 22 5 66 6 97 1 31 6 54 11 51 4 -3 8 0
8 5 0 6 -6 11 -12 11 -10 0 -9 3 1 9 8 5 9 11 3 15 -5 3 -9 28 -7 56 2 40 -1
50 -15 55 -20 6 -35 48 -20 53 6 2 7 8 4 13 -3 6 0 16 6 24 10 12 9 15 -4 15
-9 0 -16 6 -16 13 0 7 -10 17 -22 22 -22 10 -22 9 -32 180 -4 66 -6 68 -19 16
-7 -25 -17 -46 -23 -48 -6 -2 -33 12 -60 32 -45 33 -46 34 -16 5 30 -28 36
-42 53 -138 21 -112 79 -480 79 -497 0 -15 -50 74 -65 115 -6 19 -20 60 -29
90 -10 30 -22 64 -26 75 -13 29 -32 90 -85 270 -40 133 -48 174 -48 245 -1
120 4 193 16 208 6 8 6 12 -3 12 -9 0 -9 4 -2 13 5 6 13 39 17 72 3 32 10 66
14 75 4 8 9 33 10 55 1 22 6 65 11 95 5 30 8 64 6 75 -2 11 1 29 7 40 15 27
15 45 1 75 -15 33 -12 51 29 148 47 113 54 115 16 4 -31 -89 -32 -93 -19 -148
11 -43 15 -52 21 -37 4 11 14 23 23 26 9 4 16 14 16 22 0 9 13 36 30 60 19 28
28 50 23 61 -5 14 -3 16 12 11 15 -6 16 -5 6 7 -8 10 -9 16 -1 21 27 17 92
198 84 239 -6 37 1 33 90 -42 75 -63 180 -132 200 -132 6 0 0 9 -14 19 -13 11
-27 18 -31 15 -4 -2 -14 7 -23 21 -11 16 -22 22 -33 18 -11 -4 -14 -3 -9 6 4
6 3 10 -2 9 -6 -2 -10 1 -10 5 -1 5 -26 27 -56 50 -31 23 -56 48 -56 55 0 7
-6 21 -12 32 -11 17 -9 23 14 45 15 14 32 43 38 65 6 22 16 40 23 40 18 0 113
106 108 122 -2 7 0 10 4 6 10 -10 90 37 90 54 0 8 12 12 33 12 33 -2 34 4 4
39 -21 23 -34 21 -57 -11z m-564 -785 c-10 -9 -11 -8 -5 6 3 10 9 15 12 12 3
-3 0 -11 -7 -18z m752 -1634 c-13 -2 -33 -2 -45 0 -13 2 -3 4 22 4 25 0 35 -2
23 -4z m-883 -150 c-1 -24 -2 -26 -11 -10 -5 9 -7 22 -4 27 10 17 15 11 15
-17z m1283 10 c-7 -2 -19 -2 -25 0 -7 3 -2 5 12 5 14 0 19 -2 13 -5z m-1833
-46 c0 -5 14 -27 31 -48 17 -21 28 -39 26 -39 -3 0 -30 10 -61 21 l-56 22 6
36 c4 20 8 39 11 43 5 9 43 -23 43 -35z"/>
<path d="M1740 3895 c0 -3 7 -14 16 -23 15 -14 16 -14 13 3 -4 17 -29 35 -29
20z"/>
<path d="M7000 3836 c0 -2 8 -10 18 -17 15 -13 16 -12 3 4 -13 16 -21 21 -21
13z"/>
<path d="M1790 3796 c0 -22 13 -26 33 -11 16 11 16 13 1 19 -25 9 -34 7 -34
-8z"/>
<path d="M1905 3760 c3 -5 8 -10 11 -10 2 0 4 5 4 10 0 6 -5 10 -11 10 -5 0
-7 -4 -4 -10z"/>
<path d="M2360 3720 c0 -16 5 -30 10 -30 6 0 10 14 10 30 0 17 -4 30 -10 30
-5 0 -10 -13 -10 -30z"/>
<path d="M8420 3718 c-69 -16 -138 -33 -155 -37 l-30 -7 32 -17 c29 -15 38
-16 93 -3 34 8 71 21 83 29 12 8 37 18 55 21 17 4 32 12 32 17 0 5 3 8 8 7 4
0 14 1 22 5 8 3 22 8 30 10 51 18 -66 0 -170 -25z"/>
<path d="M1003 3714 c-6 -10 -16 -35 -22 -55 -7 -20 -27 -53 -46 -72 -19 -20
-35 -41 -35 -46 0 -7 19 -10 47 -8 53 2 55 1 78 -137 8 -43 16 -81 20 -84 3
-3 13 1 21 10 14 14 15 25 4 85 -6 37 -15 113 -20 169 -4 55 -14 114 -23 129
-13 27 -15 27 -24 9z"/>
<path d="M1520 3700 c0 -5 5 -10 11 -10 5 0 7 5 4 10 -3 6 -8 10 -11 10 -2 0
-4 -4 -4 -10z"/>
<path d="M1393 3678 c-32 -16 -35 -34 -12 -75 50 -89 191 -249 209 -238 6 3
10 -5 10 -19 0 -14 4 -26 9 -26 5 0 16 -3 25 -6 11 -4 16 -1 16 10 0 12 10 16
46 16 40 0 45 2 34 15 -7 8 -9 15 -6 15 16 0 -81 117 -198 238 -80 83 -93 89
-133 70z"/>
<path d="M8192 3663 c-16 -6 -409 -298 -466 -346 -21 -17 -60 -44 -86 -58
-196 -107 -277 -186 -434 -423 -70 -104 -126 -194 -126 -200 0 -18 110 -146
126 -146 8 0 14 5 14 11 0 6 -7 9 -15 6 -8 -4 -17 -1 -21 5 -5 7 4 9 30 4 40
-8 117 19 114 38 -3 26 15 47 34 40 16 -5 18 -3 12 7 -19 31 -15 49 12 49 17
0 28 7 31 19 3 11 15 22 27 24 20 4 20 4 -2 6 -14 0 -20 5 -17 12 4 6 -2 13
-14 16 -12 3 -21 10 -21 17 0 6 -4 6 -9 -3 -6 -9 -11 -10 -15 -2 -4 6 -2 11 3
11 6 0 11 7 11 15 0 8 9 15 21 15 11 0 17 5 14 10 -3 6 1 10 9 10 10 0 13 -6
9 -16 -5 -14 -3 -15 18 -3 29 16 72 22 64 8 -4 -5 -14 -9 -23 -10 -14 0 -13
-2 3 -9 12 -5 14 -9 6 -9 -8 -1 -12 -4 -8 -7 3 -3 20 4 36 16 17 12 31 18 31
13 0 -13 -14 -30 -29 -35 -26 -8 26 -51 55 -45 13 2 24 0 24 -5 0 -6 11 -7 24
-4 23 6 23 4 13 -20 -10 -21 -17 -25 -43 -21 -17 3 -37 1 -45 -4 -9 -6 13 -9
64 -7 75 3 77 4 57 20 -12 10 -16 19 -10 23 14 9 -12 34 -29 27 -10 -4 -12 -1
-6 8 6 10 -2 12 -44 6 -36 -5 -51 -4 -46 4 3 6 11 8 16 5 5 -4 9 -1 9 5 0 6 6
10 13 9 37 -5 37 4 2 28 -22 15 -45 33 -51 41 -8 10 -17 13 -30 7 -29 -12 -94
-16 -94 -5 0 6 6 10 13 11 45 2 79 8 85 14 4 4 -7 5 -25 2 -18 -4 -35 -2 -38
3 -9 15 -37 12 -29 -2 5 -10 3 -10 -7 0 -12 11 -12 14 1 22 14 9 7 14 -14 11
-4 -1 -6 9 -2 23 4 15 1 26 -7 29 -9 4 -9 8 2 15 9 6 10 12 3 16 -6 4 -9 13
-6 20 3 8 1 17 -5 21 -6 3 -11 13 -11 22 0 14 2 14 19 -1 16 -15 23 -16 43 -5
13 6 25 15 28 18 3 3 21 18 40 33 19 15 47 37 61 50 15 13 49 41 77 63 28 22
62 60 77 85 17 29 44 56 77 75 28 17 86 57 128 90 43 33 91 69 106 80 49 36
99 76 117 96 9 10 23 17 30 14 6 -2 26 -6 42 -9 28 -6 29 -5 11 8 -11 9 -16
22 -13 31 7 15 2 17 -21 8z m-782 -963 c0 -5 -7 -7 -15 -4 -8 4 -15 8 -15 10
0 2 7 4 15 4 8 0 15 -4 15 -10z m-3 -36 c-3 -3 -12 -4 -19 -1 -8 3 -5 6 6 6
11 1 17 -2 13 -5z"/>
<path d="M2671 3586 c2 -2 64 -16 137 -30 74 -15 143 -31 154 -37 20 -11 20
-11 2 20 -12 20 -31 35 -54 41 -33 9 -248 15 -239 6z"/>
<path d="M7295 3514 c-27 -19 -107 -73 -178 -120 -70 -47 -138 -100 -151 -117
-40 -53 -277 -536 -307 -626 -36 -104 -36 -112 -1 -41 21 43 31 54 47 51 19
-3 19 -2 3 16 -11 12 -14 23 -8 33 5 8 6 18 4 22 -10 15 7 8 91 -44 47 -29
102 -63 123 -75 41 -25 91 -30 110 -11 9 9 12 9 12 -3 0 -8 -5 -20 -12 -27 -9
-9 -5 -19 22 -43 19 -17 27 -28 18 -25 -10 3 -18 1 -18 -4 0 -6 8 -10 18 -11
9 0 1 -7 -18 -14 -29 -11 -33 -18 -10 -17 3 0 12 -7 19 -16 13 -14 12 -15 -7
-10 -12 4 -20 2 -17 -2 3 -5 1 -11 -5 -15 -6 -4 -8 -10 -5 -15 3 -5 0 -12 -6
-16 -7 -4 -1 -12 17 -20 l29 -12 -27 -1 c-16 -1 -28 -3 -28 -6 0 -8 36 -42 51
-48 10 -4 9 -6 -3 -6 -9 -1 -20 4 -23 9 -9 15 -25 2 -18 -15 3 -9 19 -15 37
-16 28 0 29 -1 8 -9 -12 -5 -29 -7 -37 -4 -8 4 -15 1 -15 -4 0 -6 9 -14 20
-17 22 -7 26 -21 8 -27 -7 -3 -5 -7 6 -11 10 -4 15 -3 11 3 -3 6 -1 10 4 10 6
0 11 -5 11 -11 0 -5 5 -7 10 -4 6 3 10 1 10 -4 0 -6 -17 -11 -37 -11 -34 -1
-36 -2 -20 -14 19 -15 117 -21 117 -7 0 8 28 19 68 27 24 5 82 49 78 59 -2 6
-9 9 -15 7 -7 -1 -21 2 -32 8 -15 9 -17 15 -9 30 8 14 8 20 0 20 -6 0 -8 5 -5
10 8 12 -12 40 -27 40 -6 0 -5 -7 2 -15 7 -9 10 -18 6 -22 -9 -10 -16 1 -20
33 -4 32 -31 89 -55 118 -12 15 -12 17 -2 11 10 -5 7 5 -7 28 -12 20 -31 53
-43 72 -11 20 -26 35 -32 33 -23 -3 -98 23 -170 60 -67 35 -157 91 -157 98 0
7 45 81 68 112 14 18 32 46 41 61 9 16 24 44 35 63 10 18 36 56 57 84 22 28
39 56 39 63 0 6 9 21 20 33 l19 21 83 -50 c119 -73 214 -123 230 -122 7 0 3 5
-9 11 -13 6 -23 15 -23 19 0 5 -26 21 -57 35 -68 33 -201 110 -226 132 -16 14
-16 16 -1 34 10 10 13 18 9 18 -5 0 14 11 41 25 28 14 60 34 72 45 11 11 25
20 29 20 4 0 20 10 35 23 14 12 36 29 48 37 13 8 34 25 48 38 14 12 29 22 33
22 9 0 33 40 27 45 -2 2 -25 -12 -53 -31z m-225 -1114 c0 -5 -4 -10 -9 -10 -6
0 -13 5 -16 10 -3 6 1 10 9 10 9 0 16 -4 16 -10z m20 -80 c0 -5 -2 -10 -4 -10
-3 0 -8 5 -11 10 -3 6 -1 10 4 10 6 0 11 -4 11 -10z"/>
<path d="M2300 3500 c0 -5 5 -10 11 -10 5 0 7 5 4 10 -3 6 -8 10 -11 10 -2 0
-4 -4 -4 -10z"/>
<path d="M2328 3453 c7 -3 16 -2 19 1 4 3 -2 6 -13 5 -11 0 -14 -3 -6 -6z"/>
<path d="M2980 3440 c0 -5 7 -7 15 -4 8 4 15 8 15 10 0 2 -7 4 -15 4 -8 0 -15
-4 -15 -10z"/>
<path d="M2992 3403 c-6 -2 -10 -9 -6 -14 8 -14 21 -11 21 6 0 8 -1 15 -1 14
-1 0 -7 -3 -14 -6z"/>
<path d="M3030 3390 c0 -10 33 -30 49 -30 22 0 10 18 -19 29 -17 5 -30 6 -30
1z"/>
<path d="M2762 3363 c16 -37 119 -203 125 -203 3 0 -4 16 -16 36 -12 19 -21
40 -21 46 0 10 -89 148 -96 148 -2 0 2 -12 8 -27z"/>
<path d="M3025 3310 c10 -11 22 -20 26 -20 5 0 1 9 -8 20 -10 11 -22 20 -27
20 -5 0 -1 -9 9 -20z"/>
<path d="M3085 3320 c-4 -6 -12 -8 -18 -4 -7 3 -4 -1 5 -9 10 -8 14 -18 10
-22 -4 -4 2 -3 14 3 15 8 24 8 34 -1 10 -9 12 -9 8 3 -3 8 -14 16 -26 18 -12
2 -20 8 -17 13 4 5 4 9 1 9 -3 0 -8 -5 -11 -10z"/>
<path d="M2375 3300 c-44 -22 -23 -20 40 4 23 9 32 15 20 15 -11 0 -38 -8 -60
-19z"/>
<path d="M2478 3313 c6 -2 18 -2 25 0 6 3 1 5 -13 5 -14 0 -19 -2 -12 -5z"/>
<path d="M8735 3315 c-5 -2 -22 -6 -37 -9 -39 -9 -35 -23 10 -35 47 -14 49
-14 49 2 0 6 4 20 8 30 7 16 -4 21 -30 12z"/>
<path d="M2520 3306 c0 -2 7 -7 16 -10 8 -3 12 -2 9 4 -6 10 -25 14 -25 6z"/>
<path d="M2154 3288 c-4 -7 -3 -8 5 -4 6 4 14 0 17 -8 9 -25 70 -21 77 4 5 18
0 20 -43 20 -27 0 -52 -5 -56 -12z"/>
<path d="M2560 3293 c0 -4 22 -27 50 -51 27 -23 68 -67 92 -97 23 -30 44 -52
46 -50 6 6 -40 66 -92 123 -43 47 -96 88 -96 75z"/>
<path d="M8626 3278 c-29 -17 -227 -170 -327 -253 -48 -40 -109 -87 -135 -106
-65 -44 -352 -268 -434 -338 -36 -31 -135 -126 -220 -211 -85 -85 -171 -166
-191 -179 -37 -25 -56 -52 -101 -141 -43 -85 -47 -81 83 -85 86 -3 86 -3 81
21 -3 18 0 24 12 24 10 0 14 5 10 11 -3 6 13 28 36 49 27 24 39 43 35 51 -5 8
-4 10 4 5 6 -4 18 0 27 8 8 9 12 16 7 16 -4 0 7 10 25 21 17 12 32 24 32 28 0
5 22 31 48 59 27 29 47 54 44 57 -3 3 2 5 11 5 10 0 17 8 17 20 0 13 7 20 20
20 14 0 20 7 20 21 0 11 3 18 8 16 8 -6 26 13 30 32 1 7 16 30 32 50 17 20 31
51 32 68 3 26 13 39 58 71 30 22 93 58 140 82 58 29 100 58 132 92 44 48 49
51 84 45 21 -4 41 -12 45 -19 4 -7 12 -9 16 -4 4 4 -13 27 -38 50 -39 35 -46
47 -42 69 4 22 8 25 24 17 14 -8 37 -1 101 28 46 22 95 50 109 63 67 64 120
101 137 97 35 -10 65 20 64 62 0 8 4 25 10 37 8 17 8 26 -2 38 -15 18 -19 18
-44 3z"/>
<path d="M2432 3250 c0 -14 2 -19 5 -12 2 6 2 18 0 25 -3 6 -5 1 -5 -13z"/>
<path d="M4225 3259 c-9 -14 -10 -13 60 -27 33 -7 71 -14 85 -17 14 -3 -7 5
-46 18 -39 13 -75 27 -81 30 -7 4 -15 2 -18 -4z"/>
<path d="M3050 3256 c0 -2 7 -6 15 -10 8 -3 15 -1 15 4 0 6 -7 10 -15 10 -8 0
-15 -2 -15 -4z"/>
<path d="M3105 3240 c-3 -5 -1 -10 4 -10 6 0 11 5 11 10 0 6 -2 10 -4 10 -3 0
-8 -4 -11 -10z"/>
<path d="M5585 3242 c32 -34 297 -153 484 -217 126 -43 104 -24 -30 25 -45 17
-115 46 -153 64 -39 19 -105 48 -146 66 -75 32 -136 59 -155 68 -7 3 -7 1 0
-6z"/>
<path d="M6900 3219 c0 -5 5 -7 10 -4 6 3 10 8 10 11 0 2 -4 4 -10 4 -5 0 -10
-5 -10 -11z"/>
<path d="M2400 3198 c-19 -12 -57 -39 -83 -61 -27 -21 -51 -37 -54 -34 -3 3 0
20 6 38 6 18 9 35 6 37 -3 3 -5 0 -5 -7 0 -7 -4 -10 -9 -7 -18 11 -61 -208
-44 -225 7 -7 14 17 22 65 11 69 31 113 31 68 0 -11 15 -26 41 -39 22 -11 40
-23 40 -27 -3 -25 3 -34 34 -50 19 -10 37 -27 40 -37 4 -11 13 -19 21 -19 8 0
14 -4 14 -8 0 -5 18 -18 40 -30 l40 -21 7 27 c5 23 7 24 13 7 5 -15 14 0 38
62 18 45 32 88 32 94 0 16 -38 -18 -43 -40 -3 -9 -3 1 -1 22 3 21 -2 50 -10
66 -12 22 -12 31 -3 42 10 11 9 11 -4 1 -13 -9 -25 -2 -69 43 -30 30 -57 55
-60 54 -3 0 -21 -10 -40 -21z m177 -260 c-3 -8 -6 -5 -6 6 -1 11 2 17 5 13 3
-3 4 -12 1 -19z"/>
<path d="M4428 3203 c7 -3 16 -2 19 1 4 3 -2 6 -13 5 -11 0 -14 -3 -6 -6z"/>
<path d="M3127 3188 c2 -5 14 -8 26 -9 12 0 16 -3 10 -6 -7 -2 -13 -8 -13 -12
0 -12 53 -35 74 -32 14 2 17 -2 13 -14 -4 -9 -3 -13 3 -10 5 3 14 -4 20 -15
12 -23 53 -29 44 -6 -3 7 -13 13 -22 12 -9 0 -17 4 -18 9 -3 27 -18 45 -33 40
-11 -3 -25 5 -39 24 -14 19 -29 28 -46 27 -13 0 -22 -4 -19 -8z"/>
<path d="M3218 3178 c6 -6 19 -13 27 -14 13 -2 14 1 4 12 -6 8 -19 14 -27 14
-12 0 -13 -3 -4 -12z"/>
<path d="M6880 3169 c-7 -11 -10 -23 -7 -25 2 -2 9 7 15 21 14 30 7 33 -8 4z"/>
<path d="M5007 3123 c8 -50 13 -55 13 -10 0 20 -4 38 -9 42 -6 3 -7 -10 -4
-32z"/>
<path d="M3060 3120 c0 -5 6 -10 14 -10 18 0 29 -27 13 -34 -7 -2 -4 -5 6 -5
9 -1 17 -6 17 -12 0 -7 -8 -18 -17 -26 -16 -13 -16 -14 -1 -9 23 7 47 -22 27
-34 -10 -7 -9 -9 8 -8 13 2 19 7 15 16 -4 12 0 11 20 -2 24 -16 25 -15 23 6
-1 18 -7 22 -26 20 -20 -2 -24 2 -25 23 -1 15 -10 32 -20 40 -11 7 -16 17 -12
21 4 4 13 2 20 -4 14 -11 68 -12 68 -1 0 23 -65 36 -87 17 -9 -7 -13 -7 -13 1
0 6 -7 11 -15 11 -8 0 -15 -4 -15 -10z"/>
<path d="M6845 3100 c-9 -16 -13 -30 -11 -30 3 0 12 14 21 30 9 17 13 30 11
30 -3 0 -12 -13 -21 -30z"/>
<path d="M3215 3085 c11 -9 19 -23 17 -31 -3 -16 23 -19 33 -4 3 6 1 10 -4 10
-6 0 -11 7 -11 15 0 8 -4 15 -9 15 -5 0 -18 3 -28 6 -16 5 -16 4 2 -11z"/>
<path d="M4932 3065 c0 -16 2 -22 5 -12 2 9 2 23 0 30 -3 6 -5 -1 -5 -18z"/>
<path d="M2908 3074 c-5 -4 -8 -19 -8 -33 0 -18 3 -22 11 -14 6 6 9 21 7 33
-1 12 -6 18 -10 14z"/>
<path d="M4155 3070 c3 -5 8 -10 11 -10 2 0 4 5 4 10 0 6 -5 10 -11 10 -5 0
-7 -4 -4 -10z"/>
<path d="M3167 3054 c58 -41 65 -51 51 -74 -11 -18 -10 -23 7 -33 27 -15 58
-20 50 -7 -3 5 -15 10 -25 10 -24 0 -31 22 -11 37 11 9 12 15 5 20 -6 5 -13
16 -17 26 -3 9 -16 17 -27 17 -11 0 -20 5 -20 10 0 6 -8 10 -17 9 -15 0 -15
-2 4 -15z"/>
<path d="M5753 3048 c11 -9 14 -18 8 -27 -7 -11 -14 -11 -41 3 -40 20 -41 20
-34 1 4 -8 9 -13 13 -11 3 2 15 -5 25 -15 12 -11 14 -19 7 -19 -7 0 -9 -5 -6
-10 4 -6 1 -18 -6 -26 -9 -11 -14 -12 -20 -3 -5 9 -11 10 -21 2 -7 -6 -16 -11
-20 -10 -3 1 -10 -1 -14 -5 -4 -5 -2 -8 4 -8 7 0 12 -5 12 -10 0 -6 -11 -8
-26 -4 -18 5 -25 3 -21 -3 4 -6 18 -13 32 -15 15 -3 22 -1 18 5 -4 6 0 8 11 4
10 -4 20 -7 23 -7 4 0 -2 -9 -12 -20 -14 -16 -15 -19 -3 -15 15 6 33 39 78
139 18 39 19 50 8 57 -21 14 -34 10 -15 -3z m-43 -140 c0 -11 -12 -10 -30 2
-12 7 -10 9 8 7 12 0 22 -5 22 -9z"/>
<path d="M6797 3005 c-15 -30 -25 -55 -22 -55 7 0 57 101 53 106 -2 2 -16 -21
-31 -51z"/>
<path d="M2017 3044 c-4 -4 -7 -22 -7 -41 0 -18 -4 -33 -9 -33 -5 0 -11 -21
-13 -47 -4 -42 1 -57 38 -122 49 -85 49 -85 69 51 14 102 15 99 -42 166 -16
18 -32 30 -36 26z"/>
<path d="M2720 2983 c-17 -37 -41 -92 -52 -121 -11 -28 -28 -57 -40 -63 -32
-17 -57 -42 -52 -51 7 -11 -2 -10 -92 7 -43 8 -80 13 -82 10 -5 -5 58 -32 117
-51 72 -23 97 -19 128 22 15 20 47 59 71 87 44 53 54 81 26 70 -12 -5 -15 -1
-11 13 10 34 27 137 23 141 -2 2 -18 -27 -36 -64z"/>
<path d="M5445 3030 c3 -5 1 -20 -5 -32 -11 -22 -10 -22 4 -4 18 23 21 46 5
46 -5 0 -7 -4 -4 -10z"/>
<path d="M3264 3011 c0 -15 3 -17 13 -9 7 6 13 14 13 19 0 5 -6 9 -13 9 -7 0
-13 -9 -13 -19z"/>
<path d="M4368 3013 c7 -3 16 -2 19 1 4 3 -2 6 -13 5 -11 0 -14 -3 -6 -6z"/>
<path d="M2258 2993 c7 -3 16 -2 19 1 4 3 -2 6 -13 5 -11 0 -14 -3 -6 -6z"/>
<path d="M3900 2989 c0 -5 5 -7 10 -4 6 3 10 8 10 11 0 2 -4 4 -10 4 -5 0 -10
-5 -10 -11z"/>
<path d="M4906 2973 c-7 -33 -25 -171 -26 -195 0 -10 4 -18 9 -18 5 0 12 35
16 78 3 42 8 96 11 120 5 47 -1 57 -10 15z"/>
<path d="M5018 2971 c-2 -16 -1 -37 3 -47 5 -13 8 -3 8 29 1 53 -5 62 -11 18z"/>
<path d="M4038 2983 c6 -2 18 -2 25 0 6 3 1 5 -13 5 -14 0 -19 -2 -12 -5z"/>
<path d="M3137 2951 c-15 -16 -16 -19 -3 -24 8 -3 17 1 21 11 5 14 7 14 15 2
16 -26 11 -39 -17 -43 -19 -3 -12 -5 20 -7 93 -5 117 -3 117 9 0 6 -16 7 -35
4 -27 -4 -35 -2 -35 10 0 8 -7 18 -16 21 -8 3 -13 10 -10 15 3 5 -1 12 -10 15
-22 8 -27 7 -47 -13z"/>
<path d="M5800 2962 c0 -7 5 -12 10 -12 6 0 10 -7 10 -15 0 -17 25 -20 35 -5
3 6 1 10 -6 10 -7 0 -21 7 -31 17 -11 9 -18 11 -18 5z"/>
<path d="M6033 2952 c10 -13 9 -14 -12 -3 -15 8 -21 9 -17 2 4 -6 3 -11 -2
-11 -6 0 -12 -6 -15 -14 -4 -10 0 -12 15 -8 15 4 19 2 13 -7 -4 -7 5 -5 21 5
15 11 31 18 34 16 3 -2 6 3 8 11 2 10 -8 16 -27 19 -26 4 -29 2 -18 -10z"/>
<path d="M5946 2944 c-9 -24 -7 -27 9 -10 17 17 19 26 6 26 -5 0 -12 -7 -15
-16z"/>
<path d="M8962 2924 c-23 -19 -41 -40 -39 -46 1 -6 -5 -12 -14 -13 -9 -2 -43
-23 -75 -47 -32 -24 -102 -76 -154 -114 -52 -39 -138 -102 -190 -141 -52 -39
-138 -99 -190 -133 -52 -35 -111 -76 -130 -92 -19 -16 -40 -32 -45 -36 -66
-47 -487 -367 -490 -372 -7 -11 45 -71 54 -65 5 2 19 -7 31 -20 13 -14 29 -25
37 -25 7 0 13 -7 13 -15 0 -8 9 -15 20 -15 11 0 20 5 20 10 0 6 -5 10 -12 10
-6 0 -8 3 -5 6 4 4 13 2 20 -5 20 -16 42 -5 62 34 11 19 24 31 32 28 7 -3 13
2 13 11 0 9 6 16 13 16 8 0 24 11 37 25 13 14 30 25 37 25 8 0 11 4 8 10 -3 5
12 17 34 26 23 9 38 20 35 25 -3 5 2 9 10 9 9 0 15 6 13 13 -1 7 11 13 29 15
22 2 34 9 37 23 4 15 14 19 47 19 39 0 49 -6 133 -85 50 -47 92 -83 95 -81 4
5 -18 45 -35 64 -7 7 -15 23 -18 35 -3 12 -20 30 -37 40 -24 14 -29 20 -18 27
11 7 10 12 -5 27 -17 16 -18 16 -12 1 3 -10 4 -18 0 -18 -12 0 -43 44 -43 62
0 11 -9 31 -20 45 -11 14 -20 33 -20 42 0 9 -7 27 -16 39 -27 39 -4 45 36 8
l38 -34 64 31 c34 18 68 37 74 42 6 6 23 19 37 30 15 11 27 26 27 34 0 8 3 11
7 8 3 -4 12 2 20 12 8 13 24 19 43 19 33 -1 37 -7 18 -27 -11 -10 -10 -11 5
-6 9 4 17 11 17 16 0 5 7 9 15 9 8 0 15 9 15 19 0 24 -16 36 -24 19 -3 -7 -4
-1 -1 14 3 14 1 28 -4 30 -5 2 -16 27 -24 56 -15 50 -15 52 2 43 10 -6 23 -17
31 -25 23 -29 49 -17 120 56 63 65 70 76 70 112 l0 40 33 -32 c28 -28 35 -30
47 -18 8 8 35 25 60 38 32 16 46 30 48 48 2 14 11 37 19 51 10 17 13 34 8 45
-5 11 -7 22 -7 27 4 15 -16 6 -56 -29z m8 -8 c0 -2 -8 -10 -17 -17 -16 -13
-17 -12 -4 4 13 16 21 21 21 13z m-1300 -1011 c13 -14 19 -25 13 -25 -6 0 -18
11 -27 25 -9 14 -15 25 -13 25 2 0 14 -11 27 -25z"/>
<path d="M2855 2863 c-33 -114 -43 -136 -55 -128 -6 4 -16 2 -23 -3 -7 -5 -32
-12 -57 -16 -25 -4 -68 -14 -97 -23 -49 -16 -55 -15 -115 5 -35 11 -94 35
-133 54 -90 42 -94 43 -70 24 20 -15 20 -15 -2 -16 -13 0 -23 -4 -23 -10 0 -5
8 -10 17 -10 15 0 15 -1 -1 -13 -16 -12 -16 -14 7 -26 26 -14 42 -47 26 -56
-5 -3 -17 -1 -28 5 -28 14 -30 13 -29 -20 1 -22 6 -30 20 -30 10 0 18 -7 18
-15 0 -8 -3 -14 -7 -14 -20 3 -26 -2 -13 -11 13 -8 12 -10 -2 -10 -10 0 -18
-4 -18 -10 0 -5 4 -10 10 -10 5 0 7 -6 5 -12 -3 -7 5 -18 18 -23 23 -11 22
-12 128 64 l34 24 -35 -38 c-19 -22 -42 -45 -50 -52 -22 -19 -4 -16 40 7 40
20 79 29 50 10 -11 -7 -8 -11 15 -20 17 -6 43 -16 58 -22 39 -15 156 -145 202
-223 21 -36 39 -65 41 -65 3 0 -8 24 -22 53 -51 101 -181 244 -247 272 -25 11
-29 15 -15 20 9 4 38 -3 65 -15 34 -16 69 -22 121 -23 l74 0 39 -80 c22 -45
42 -83 45 -86 8 -7 -3 35 -16 64 -17 36 -28 125 -16 119 6 -3 0 4 -14 15 -49
39 -62 53 -56 59 3 3 16 -4 29 -15 37 -34 118 -70 277 -122 147 -49 281 -78
217 -48 -15 7 -25 16 -21 19 3 4 -3 4 -15 1 -12 -3 -21 -1 -21 5 0 6 -15 13
-32 17 -31 7 -82 26 -118 44 -8 5 -16 18 -18 30 -3 17 -8 20 -23 16 -11 -4
-19 -2 -19 5 0 6 -4 9 -9 5 -22 -13 -22 20 0 38 l24 20 -27 -5 c-19 -4 -25 -1
-21 9 5 13 13 16 48 15 17 -1 18 0 2 4 -14 5 -16 9 -7 19 14 17 5 35 -18 35
-15 -1 -14 -2 2 -12 18 -10 18 -11 -5 -24 -29 -16 -42 -18 -34 -4 3 6 -1 13
-9 16 -11 4 -13 11 -6 30 11 27 -8 43 -31 28 -8 -4 -9 -3 -5 5 4 6 2 18 -4 26
-9 11 -9 15 -1 15 6 0 11 5 11 10 0 6 -7 10 -16 10 -15 0 -16 10 -11 90 4 50
5 90 2 90 -2 0 -15 -39 -30 -87z m-485 -239 c0 -2 -9 -4 -21 -4 -11 0 -18 4
-14 10 5 8 35 3 35 -6z"/>
<path d="M4055 2940 c3 -5 11 -10 16 -10 6 0 7 5 4 10 -3 6 -11 10 -16 10 -6
0 -7 -4 -4 -10z"/>
<path d="M6402 2891 c2 -34 6 -61 10 -61 5 0 8 7 8 15 0 18 21 11 75 -25 22
-15 69 -42 103 -60 51 -26 66 -30 72 -20 9 15 -6 26 -107 80 -71 38 -142 91
-143 107 0 6 -5 15 -11 18 -7 5 -9 -13 -7 -54z"/>
<path d="M6095 2922 c-15 -11 -36 -52 -27 -52 4 0 16 14 25 30 19 31 19 35 2
22z"/>
<path d="M3738 2913 c7 -3 16 -2 19 1 4 3 -2 6 -13 5 -11 0 -14 -3 -6 -6z"/>
<path d="M3955 2910 c3 -5 16 -10 28 -9 21 0 21 1 2 9 -28 12 -37 12 -30 0z"/>
<path d="M5768 2915 c-8 -8 3 -55 13 -55 5 0 9 -7 9 -16 0 -13 3 -14 13 -5 10
8 17 7 27 -2 10 -10 12 -9 7 5 -3 9 -1 19 6 21 7 2 4 3 -5 2 -10 -2 -18 1 -18
6 0 6 -8 9 -17 7 -11 -2 -18 3 -18 14 0 19 -9 31 -17 23z"/>
<path d="M3088 2903 c7 -3 16 -2 19 1 4 3 -2 6 -13 5 -11 0 -14 -3 -6 -6z"/>
<path d="M4081 2894 c0 -11 3 -14 6 -6 3 7 2 16 -1 19 -3 4 -6 -2 -5 -13z"/>
<path d="M5869 2890 c30 -26 49 -26 26 0 -10 11 -25 20 -34 20 -12 -1 -10 -5
8 -20z"/>
<path d="M3036 2885 c-9 -23 -8 -25 9 -25 17 0 19 9 6 28 -7 11 -10 10 -15 -3z"/>
<path d="M3700 2885 c0 -8 5 -15 10 -15 6 0 10 7 10 15 0 8 -4 15 -10 15 -5 0
-10 -7 -10 -15z"/>
<path d="M4656 2882 c-3 -5 -17 -80 -31 -168 -14 -87 -42 -253 -61 -369 -20
-115 -44 -275 -54 -355 -20 -162 -55 -391 -75 -490 -8 -39 -10 -71 -4 -80 7
-13 8 -12 9 3 0 9 5 17 10 17 6 0 10 7 10 16 0 11 6 14 18 10 16 -6 16 -5 0 8
-27 20 -22 26 14 19 28 -6 30 -5 17 9 -8 9 -16 12 -19 7 -8 -11 -24 3 -28 24
-3 15 2 16 25 11 l28 -7 -22 19 c-18 15 -20 22 -12 34 9 13 10 13 5 -2 -3 -12
-1 -15 10 -11 7 3 14 0 14 -6 0 -6 8 -11 17 -11 14 0 13 3 -5 16 -12 8 -22 21
-22 27 0 7 4 6 10 -3 15 -24 23 -3 12 30 -11 29 -10 30 11 18 20 -10 21 -10 9
5 -12 14 -10 16 10 14 13 0 26 -6 30 -12 5 -6 8 -6 8 2 0 6 -10 19 -22 28 -23
16 -23 16 7 10 28 -5 28 -5 8 6 -13 7 -23 17 -23 24 0 14 34 47 46 44 23 -4
54 2 54 10 0 6 -15 7 -34 4 -18 -3 -36 -1 -40 5 -3 6 1 8 12 5 21 -5 49 22 32
32 -20 13 -9 24 27 27 34 3 36 4 20 20 -9 9 -17 21 -17 27 0 5 -7 14 -16 19
-11 6 -13 11 -5 16 6 4 11 3 11 -1 0 -5 9 -9 20 -10 29 -2 25 14 -6 21 -18 5
-24 11 -20 23 4 8 1 22 -5 29 -9 11 -8 14 6 14 9 0 19 -9 22 -20 6 -22 11 -24
33 -10 13 8 12 10 -3 10 -10 0 -20 8 -24 18 -3 9 -15 29 -25 45 l-19 27 25
-10 c14 -5 26 -6 26 -2 0 11 -40 33 -50 27 -5 -3 -11 -1 -15 5 -4 6 5 10 19
10 14 0 26 5 26 10 0 6 -7 10 -16 10 -8 0 -12 5 -9 10 3 6 1 10 -4 10 -6 0
-11 4 -11 9 0 11 19 9 39 -3 10 -6 12 -5 7 3 -4 6 -22 18 -39 25 -28 12 -29
14 -9 15 24 1 29 15 10 27 -7 5 -5 11 7 21 15 10 16 13 3 13 -10 0 -15 10 -16
31 0 20 4 29 11 26 7 -2 26 2 42 10 l30 14 -39 -6 c-35 -6 -38 -5 -27 9 7 9
10 23 7 32 -4 9 -1 23 5 30 6 8 9 23 6 34 -4 15 0 20 14 20 10 0 19 -5 19 -12
0 -6 2 -9 5 -6 7 7 -27 68 -37 68 -5 0 -8 5 -8 11 0 6 9 8 20 4 20 -6 28 9 11
19 -11 7 -11 56 1 56 5 0 4 9 -2 20 -6 11 -7 20 -3 20 4 0 1 5 -7 11 -11 8
-12 12 -2 16 6 2 9 9 6 15 -4 6 0 14 7 19 12 8 12 10 1 18 -15 9 -13 62 3 73
6 5 6 8 -1 8 -7 0 -12 18 -12 41 -1 43 -6 57 -16 41z m-15 -991 c-7 -5 -11
-12 -9 -17 1 -5 -6 -10 -17 -12 -16 -3 -17 -1 -5 7 8 6 11 11 5 11 -5 0 -1 7
9 15 11 8 22 12 25 9 3 -3 0 -9 -8 -13z m-44 3 c-3 -3 -12 -4 -19 -1 -8 3 -5
6 6 6 11 1 17 -2 13 -5z m23 -74 c13 -8 13 -10 -2 -10 -9 0 -20 5 -23 10 -8
13 5 13 25 0z"/>
<path d="M6030 2881 c0 -5 5 -13 10 -16 6 -3 10 -2 10 4 0 5 -4 13 -10 16 -5
3 -10 2 -10 -4z"/>
<path d="M7446 2876 c3 -9 11 -16 16 -16 13 0 5 23 -10 28 -7 2 -10 -2 -6 -12z"/>
<path d="M3747 2866 c-4 -10 -1 -13 8 -9 8 3 12 9 9 14 -7 12 -11 11 -17 -5z"/>
<path d="M5015 2870 c-3 -5 -1 -10 4 -10 6 0 11 5 11 10 0 6 -2 10 -4 10 -3 0
-8 -4 -11 -10z"/>
<path d="M5590 2862 c0 -12 4 -22 9 -22 10 0 9 26 -2 36 -4 4 -7 -2 -7 -14z"/>
<path d="M3141 2854 c6 -8 20 -14 30 -14 10 0 21 -4 24 -10 8 -14 52 -13 61 1
4 8 -1 9 -16 4 -23 -7 -73 12 -65 25 3 4 -7 8 -20 8 -20 0 -23 -3 -14 -14z"/>
<path d="M3208 2863 c6 -2 10 -8 7 -13 -3 -4 5 -6 17 -2 21 5 21 6 2 13 -10 4
-23 8 -29 8 -5 -1 -4 -3 3 -6z"/>
<path d="M4010 2853 c0 -13 2 -15 8 -5 6 9 15 10 33 3 l24 -10 -25 -1 c-20 0
-22 -2 -10 -10 12 -8 12 -10 -5 -10 -35 0 -65 12 -58 23 4 7 0 8 -13 2 -10 -4
-27 -7 -37 -7 -9 0 -15 -3 -12 -9 4 -5 18 -7 33 -4 15 3 21 2 14 -1 -11 -5
-10 -10 3 -24 15 -16 14 -19 -11 -39 -18 -14 -34 -19 -50 -15 -18 5 -24 2 -24
-9 0 -9 -6 -17 -12 -20 -7 -2 -5 -3 5 -2 9 2 17 -1 17 -6 0 -5 5 -9 12 -9 9 0
9 3 0 12 -18 18 -15 27 8 21 11 -3 20 -10 20 -17 0 -6 4 -5 9 3 7 11 13 11 32
-3 l23 -16 -24 0 c-14 0 -20 -4 -15 -8 17 -12 39 -43 29 -41 -5 1 -20 1 -34 0
l-25 -2 22 -18 c18 -15 20 -20 8 -25 -8 -3 -15 -1 -15 5 0 6 -8 5 -21 -2 -15
-8 -19 -8 -15 0 4 6 2 11 -4 11 -12 0 -25 -28 -17 -36 3 -4 17 -7 31 -8 31 -1
45 -36 14 -36 -10 0 -16 5 -13 10 3 6 2 10 -4 10 -20 0 -21 -19 -1 -25 11 -4
17 -11 14 -17 -4 -7 -9 -7 -13 0 -7 12 -61 28 -61 18 0 -9 73 -39 90 -37 10 2
9 -2 -5 -13 -25 -19 -33 -20 -51 -1 -9 8 -21 15 -27 15 -7 0 -5 -5 5 -10 9 -6
15 -20 14 -34 -2 -19 4 -28 28 -40 l31 -16 -30 -1 c-21 -1 -24 -3 -10 -6 11
-2 31 -16 44 -31 13 -15 20 -21 17 -14 -12 20 5 13 30 -13 13 -14 28 -25 34
-25 7 0 5 7 -4 16 -21 21 -20 30 1 13 15 -13 16 -12 11 9 -4 12 -3 22 1 22 14
0 30 96 36 215 3 66 8 127 11 135 2 9 6 42 8 75 5 65 -1 75 -46 75 -20 0 -28
-5 -28 -17z m-16 -49 c4 -10 1 -14 -6 -12 -15 5 -23 28 -10 28 5 0 13 -7 16
-16z m46 -18 c0 -11 -19 -15 -25 -6 -3 5 1 10 9 10 9 0 16 -2 16 -4z m-29 -23
c13 -16 12 -17 -3 -4 -17 13 -22 21 -14 21 2 0 10 -8 17 -17z m10 -40 c13 -15
12 -15 -8 -4 -24 12 -29 21 -14 21 5 0 15 -7 22 -17z m-21 -107 c0 -3 -4 -8
-10 -11 -5 -3 -10 -1 -10 4 0 6 5 11 10 11 6 0 10 -2 10 -4z m-23 -32 c-3 -3
-12 -4 -19 -1 -8 3 -5 6 6 6 11 1 17 -2 13 -5z m-34 -133 c-6 -3 -12 -11 -14
-18 -3 -8 -9 -8 -23 3 -19 14 -19 14 2 14 12 0 22 5 22 11 0 5 5 7 11 3 7 -4
7 -9 2 -13z m15 -38 c-3 -19 2 -23 28 -23 9 0 14 6 11 13 -2 6 -10 11 -16 9
-7 -1 -10 2 -6 8 8 12 22 5 34 -18 7 -14 5 -18 -7 -19 -10 -1 -22 -2 -27 -3
-25 -5 -35 2 -35 25 0 14 5 25 11 25 5 0 9 -8 7 -17z m49 -49 c-3 -3 -12 -4
-19 -1 -8 3 -5 6 6 6 11 1 17 -2 13 -5z"/>
<path d="M3088 2853 c7 -3 16 -2 19 1 4 3 -2 6 -13 5 -11 0 -14 -3 -6 -6z"/>
<path d="M5012 2820 c0 -19 2 -27 5 -17 2 9 2 25 0 35 -3 9 -5 1 -5 -18z"/>
<path d="M5617 2826 c-15 -12 -15 -14 -2 -19 8 -4 14 -1 12 6 -1 7 4 11 11 9
8 -1 11 2 7 8 -8 12 -6 12 -28 -4z"/>
<path d="M5954 2818 c-3 -4 7 -8 23 -8 26 -1 27 -2 10 -14 -10 -8 -14 -17 -9
-20 6 -3 13 1 16 10 3 8 10 12 16 9 5 -3 10 -1 10 4 0 6 -6 11 -12 11 -10 0
-10 2 0 8 8 6 2 9 -18 9 -17 0 -33 -4 -36 -9z"/>
<path d="M3100 2800 c0 -4 20 -10 44 -11 33 -3 42 -1 35 7 -11 13 -79 16 -79
4z"/>
<path d="M5915 2800 c-3 -5 -2 -10 4 -10 5 0 13 5 16 10 3 6 2 10 -4 10 -5 0
-13 -4 -16 -10z"/>
<path d="M6490 2780 c19 -17 38 -30 43 -30 5 0 7 -7 4 -15 -4 -8 -1 -17 5 -21
7 -4 8 -3 4 4 -4 7 -2 12 3 12 6 0 11 -6 11 -12 0 -9 4 -8 10 2 7 11 4 20 -13
32 -12 10 -27 18 -33 18 -6 0 -19 9 -29 20 -10 11 -23 20 -29 20 -6 -1 5 -14
24 -30z"/>
<path d="M3258 2793 c7 -3 16 -2 19 1 4 3 -2 6 -13 5 -11 0 -14 -3 -6 -6z"/>
<path d="M5575 2790 c3 -6 -1 -13 -10 -16 -13 -6 -14 -8 -3 -15 7 -5 18 -9 23
-9 6 0 4 4 -4 9 -9 6 -10 11 -2 15 14 9 14 26 0 26 -5 0 -7 -5 -4 -10z"/>
<path d="M5945 2790 c-3 -5 -1 -10 4 -10 6 0 11 5 11 10 0 6 -2 10 -4 10 -3 0
-8 -4 -11 -10z"/>
<path d="M8341 2781 c15 -22 49 -45 49 -31 0 11 -40 50 -52 50 -4 0 -3 -8 3
-19z"/>
<path d="M3905 2780 c3 -5 13 -10 21 -10 8 0 12 5 9 10 -3 6 -13 10 -21 10 -8
0 -12 -4 -9 -10z"/>
<path d="M3206 2772 c-3 -6 -1 -14 5 -17 15 -10 25 3 12 16 -7 7 -13 7 -17 1z"/>
<path d="M3806 2772 c-2 -4 4 -8 14 -8 10 0 16 4 14 8 -3 4 -9 8 -14 8 -5 0
-11 -4 -14 -8z"/>
<path d="M6025 2770 c-3 -5 -1 -10 4 -10 6 0 11 5 11 10 0 6 -2 10 -4 10 -3 0
-8 -4 -11 -10z"/>
<path d="M3248 2763 c7 -3 16 -2 19 1 4 3 -2 6 -13 5 -11 0 -14 -3 -6 -6z"/>
<path d="M2927 2746 c-4 -10 -1 -13 8 -9 8 3 12 9 9 14 -7 12 -11 11 -17 -5z"/>
<path d="M3080 2752 c0 -8 14 -16 63 -40 4 -2 7 1 7 7 0 6 -11 13 -25 17 -14
3 -25 10 -25 15 0 5 -4 9 -10 9 -5 0 -10 -4 -10 -8z"/>
<path d="M7410 2752 c0 -9 59 -36 66 -29 3 3 -9 12 -27 21 -37 18 -39 19 -39
8z"/>
<path d="M3056 2725 c4 -8 11 -15 16 -15 6 0 5 6 -2 15 -7 8 -14 15 -16 15 -2
0 -1 -7 2 -15z"/>
<path d="M4881 2725 c-1 -11 -4 -31 -6 -45 l-6 -25 11 25 c6 13 9 33 7 45 -4
19 -4 19 -6 0z"/>
<path d="M6580 2710 c0 -13 5 -17 14 -14 8 3 24 1 35 -6 17 -9 21 -8 21 5 0 8
-12 20 -26 25 -36 14 -44 13 -44 -10z"/>
<path d="M7490 2720 c0 -6 7 -10 15 -10 8 0 15 2 15 4 0 2 -7 6 -15 10 -8 3
-15 1 -15 -4z"/>
<path d="M3810 2709 c0 -5 5 -7 10 -4 6 3 10 8 10 11 0 2 -4 4 -10 4 -5 0 -10
-5 -10 -11z"/>
<path d="M4805 2710 c3 -5 8 -10 11 -10 2 0 4 5 4 10 0 6 -5 10 -11 10 -5 0
-7 -4 -4 -10z"/>
<path d="M3145 2680 c3 -5 14 -10 23 -10 15 0 15 2 2 10 -20 13 -33 13 -25 0z"/>
<path d="M3925 2680 c-3 -5 1 -10 10 -10 9 0 13 5 10 10 -3 6 -8 10 -10 10 -2
0 -7 -4 -10 -10z"/>
<path d="M7542 2675 c-3 -5 -2 -7 2 -3 5 4 18 3 30 -2 16 -6 23 -5 23 3 0 15
-47 16 -55 2z"/>
<path d="M5961 2660 c0 -9 4 -21 10 -27 8 -8 6 -14 -9 -22 -10 -6 -23 -7 -27
-3 -5 4 -5 1 -1 -6 7 -11 12 -11 29 1 21 14 39 56 19 43 -6 -3 -13 2 -15 11
-4 14 -5 14 -6 3z"/>
<path d="M6191 2663 c-1 -6 -4 -20 -7 -30 -5 -17 -5 -17 6 0 6 10 9 23 6 30
-3 9 -5 9 -5 0z"/>
<path d="M7430 2655 c0 -8 5 -15 10 -15 6 0 10 7 10 15 0 8 -4 15 -10 15 -5 0
-10 -7 -10 -15z"/>
<path d="M7470 2666 c0 -2 7 -6 15 -10 8 -3 15 -1 15 4 0 6 -7 10 -15 10 -8 0
-15 -2 -15 -4z"/>
<path d="M3038 2653 c7 -3 16 -2 19 1 4 3 -2 6 -13 5 -11 0 -14 -3 -6 -6z"/>
<path d="M6751 2651 c-11 -7 -9 -10 8 -16 11 -3 21 -11 21 -16 0 -6 -5 -7 -12
-3 -7 5 -8 3 -4 -5 5 -7 14 -10 20 -8 7 3 19 1 27 -4 12 -8 11 -12 -4 -23 -17
-13 -16 -14 3 -19 11 -3 20 -10 20 -17 0 -7 -8 -9 -20 -5 -21 7 -29 -10 -7
-18 6 -2 9 -8 5 -12 -5 -5 -16 -1 -25 7 -22 19 -56 32 -48 18 3 -6 13 -10 21
-10 8 0 14 -4 14 -10 0 -5 12 -16 28 -24 l27 -15 -45 -1 -45 -1 30 -14 c28
-13 29 -13 6 -14 -19 -1 -21 -4 -11 -16 10 -12 6 -13 -26 -8 -28 5 -35 3 -30
-6 5 -7 14 -10 22 -7 8 3 17 -1 20 -9 4 -8 10 -12 15 -9 5 3 9 0 9 -5 0 -14
-13 -14 -28 1 -6 6 -15 9 -18 5 -4 -3 6 -12 21 -19 23 -10 28 -10 36 5 6 9 20
17 32 17 18 0 19 2 7 10 -12 8 -12 10 5 10 11 0 31 12 44 25 13 14 28 25 35
26 19 1 90 93 75 97 -8 2 -21 6 -29 9 -8 3 -22 7 -30 9 -8 2 -16 8 -18 13 -2
6 -9 11 -15 11 -6 0 -27 11 -46 24 -45 30 -72 38 -90 27z m95 -86 c1 -8 -2
-13 -7 -9 -5 3 -9 12 -9 21 0 19 13 9 16 -12z"/>
<path d="M6543 2628 c-5 -7 -10 -24 -11 -38 -1 -21 1 -23 9 -7 6 9 16 17 24
17 8 0 17 5 20 10 4 7 -3 8 -22 4 -25 -7 -27 -6 -14 9 7 10 11 17 8 17 -2 0
-9 -6 -14 -12z"/>
<path d="M3215 2621 c-3 -5 -1 -12 5 -16 5 -3 10 1 10 9 0 18 -6 21 -15 7z"/>
<path d="M7720 2620 c0 -5 5 -10 11 -10 5 0 7 5 4 10 -3 6 -8 10 -11 10 -2 0
-4 -4 -4 -10z"/>
<path d="M7393 2613 c9 -2 23 -2 30 0 6 3 -1 5 -18 5 -16 0 -22 -2 -12 -5z"/>
<path d="M3080 2600 c0 -5 5 -10 10 -10 6 0 10 5 10 10 0 6 -4 10 -10 10 -5 0
-10 -4 -10 -10z"/>
<path d="M3187 2596 c-4 -10 -1 -13 8 -9 8 3 12 9 9 14 -7 12 -11 11 -17 -5z"/>
<path d="M7620 2606 c0 -2 7 -7 16 -10 8 -3 12 -2 9 4 -6 10 -25 14 -25 6z"/>
<path d="M5860 2590 c0 -5 5 -10 11 -10 5 0 7 5 4 10 -3 6 -8 10 -11 10 -2 0
-4 -4 -4 -10z"/>
<path d="M3042 2573 c-8 -8 -9 -13 -2 -13 5 0 10 -7 10 -16 0 -8 5 -12 10 -9
6 4 8 10 5 15 -3 4 -1 10 4 12 5 1 4 8 -3 14 -8 8 -15 7 -24 -3z"/>
<path d="M3123 2583 c9 -2 23 -2 30 0 6 3 -1 5 -18 5 -16 0 -22 -2 -12 -5z"/>
<path d="M3815 2570 c11 -5 29 -9 40 -9 l20 0 -20 9 c-11 5 -29 9 -40 9 l-20
0 20 -9z"/>
<path d="M5765 2550 c3 -5 8 -10 11 -10 2 0 4 5 4 10 0 6 -5 10 -11 10 -5 0
-7 -4 -4 -10z"/>
<path d="M3065 2519 c-20 -9 -20 -9 0 -6 11 2 27 -3 34 -10 10 -12 15 -12 21
-3 6 9 11 7 18 -6 6 -10 14 -15 18 -11 5 5 2 12 -5 16 -7 5 -11 13 -8 18 8 13
-52 14 -78 2z"/>
<path d="M3233 2504 c0 -16 13 -19 21 -5 3 5 0 11 -7 14 -8 3 -14 -1 -14 -9z"/>
<path d="M7315 2510 c3 -5 8 -10 11 -10 2 0 4 5 4 10 0 6 -5 10 -11 10 -5 0
-7 -4 -4 -10z"/>
<path d="M3780 2500 c0 -5 5 -10 11 -10 5 0 7 5 4 10 -3 6 -8 10 -11 10 -2 0
-4 -4 -4 -10z"/>
<path d="M3830 2473 c8 -3 18 -11 22 -17 5 -7 8 -4 8 7 0 11 -7 17 -22 16 -16
0 -18 -2 -8 -6z"/>
<path d="M2363 2413 c-21 -22 -47 -51 -58 -64 -12 -13 -31 -31 -43 -39 -25
-16 -30 -60 -7 -60 21 0 19 -17 -4 -23 -14 -3 -18 -11 -14 -33 7 -38 26 -84
35 -84 8 0 38 -23 72 -55 32 -31 90 -55 133 -55 47 0 60 8 68 43 4 15 11 25
16 22 4 -3 13 3 19 14 7 13 7 22 0 26 -5 3 -10 18 -9 33 0 15 3 21 6 14 2 -6
9 -9 15 -6 6 4 14 0 19 -7 8 -12 11 -12 19 1 15 22 2 91 -20 113 -18 15 -26
43 -21 70 1 5 -3 6 -8 2 -6 -3 -8 -33 -6 -68 4 -73 -10 -58 -20 21 -8 68 -26
111 -61 145 -25 26 -62 38 -49 17 9 -14 -18 -13 -33 2 -8 8 -20 2 -49 -29z
m267 -231 c0 -10 -8 -18 -18 -19 -10 -1 -19 5 -19 13 0 8 6 13 14 10 7 -3 13
-1 13 4 0 6 2 10 5 10 3 0 5 -8 5 -18z"/>
<path d="M8646 2433 c-3 -10 -9 -24 -12 -30 -4 -8 2 -13 16 -13 12 0 30 -5 41
-10 37 -20 39 1 4 36 -41 40 -41 39 -49 17z"/>
<path d="M9335 2404 c-27 -26 -74 -64 -102 -86 -29 -22 -53 -44 -53 -48 0 -17
15 -18 47 -5 20 8 44 15 54 15 11 0 19 5 19 10 0 6 9 10 19 10 32 0 82 56 86
95 0 6 4 16 8 23 10 14 1 32 -16 32 -7 -1 -34 -21 -62 -46z"/>
<path d="M3750 2420 c0 -5 5 -10 10 -10 6 0 10 5 10 10 0 6 -4 10 -10 10 -5 0
-10 -4 -10 -10z"/>
<path d="M3835 2420 c-3 -5 -1 -10 4 -10 6 0 11 5 11 10 0 6 -2 10 -4 10 -3 0
-8 -4 -11 -10z"/>
<path d="M9460 2426 c0 -2 7 -6 15 -10 8 -3 15 -1 15 4 0 6 -7 10 -15 10 -8 0
-15 -2 -15 -4z"/>
<path d="M4675 2400 c3 -5 10 -10 16 -10 5 0 9 5 9 10 0 6 -7 10 -16 10 -8 0
-12 -4 -9 -10z"/>
<path d="M3837 2373 c-14 -13 -6 -20 18 -15 14 2 25 8 25 13 0 10 -34 12 -43
2z"/>
<path d="M3858 2333 c7 -3 16 -2 19 1 4 3 -2 6 -13 5 -11 0 -14 -3 -6 -6z"/>
<path d="M3906 2326 c21 -15 30 -14 19 3 -3 6 -14 11 -23 11 -13 0 -13 -2 4
-14z"/>
<path d="M8745 2320 c-3 -5 3 -10 14 -10 12 0 21 5 21 10 0 6 -6 10 -14 10 -8
0 -18 -4 -21 -10z"/>
<path d="M6532 2270 c-6 -24 -9 -46 -7 -48 6 -6 27 68 23 80 -3 7 -10 -8 -16
-32z"/>
<path d="M3960 2285 c-9 -11 -9 -15 -1 -15 7 0 10 -4 7 -8 -2 -4 4 -8 14 -8
19 0 21 19 3 37 -7 7 -14 5 -23 -6z"/>
<path d="M4645 2290 c3 -5 1 -10 -6 -10 -7 0 -10 -2 -7 -5 8 -9 38 6 32 16 -3
5 -10 9 -15 9 -6 0 -7 -4 -4 -10z"/>
<path d="M2040 2264 c0 -16 -13 -39 -35 -61 -20 -20 -34 -37 -32 -40 8 -7 128
-35 133 -31 6 6 24 106 24 134 0 22 -4 24 -45 24 -42 0 -45 -2 -45 -26z"/>
<path d="M9005 2243 c-27 -26 -49 -51 -47 -56 1 -5 -2 -6 -7 -3 -5 4 -13 0
-18 -8 -9 -16 -61 -53 -128 -90 -141 -79 -228 -130 -390 -229 -99 -60 -235
-141 -302 -179 -68 -38 -123 -73 -123 -77 0 -17 133 -46 255 -56 39 -3 85 -8
103 -11 27 -4 191 -7 266 -5 19 1 19 21 1 76 -4 12 2 8 14 -10 24 -34 76 -46
66 -14 -4 12 1 19 15 24 11 3 20 13 20 21 0 11 6 13 22 8 20 -6 21 -5 9 10
-12 14 -10 19 13 41 15 14 32 25 38 25 7 0 6 5 -2 15 -10 12 -9 15 8 15 11 0
28 3 36 6 15 6 15 8 -1 20 -17 13 -17 13 2 14 11 1 14 4 8 7 -18 7 -16 33 2
33 8 0 14 6 13 12 -2 7 8 14 21 16 19 3 21 6 10 13 -12 8 -11 12 4 23 9 7 17
18 17 25 0 6 8 11 18 12 13 0 12 2 -5 9 -30 12 -29 18 2 18 45 0 44 16 0 36
-6 3 -4 10 5 18 17 14 22 61 7 51 -6 -4 -8 1 -4 10 4 10 1 17 -5 17 -6 0 -9 3
-6 6 4 3 2 20 -3 37 l-9 32 26 -30 c14 -16 34 -44 45 -62 11 -18 26 -33 32
-33 8 0 8 3 -1 9 -11 7 -11 10 0 22 7 8 14 36 16 62 2 26 7 60 13 74 6 17 6
30 -1 38 -8 9 -8 15 0 20 11 7 14 35 3 35 -5 0 -30 -21 -58 -47z"/>
<path d="M5325 2236 c11 -7 90 -49 175 -91 269 -135 247 -126 254 -109 3 8 2
13 -3 9 -14 -8 -42 6 -34 18 3 6 1 7 -6 3 -6 -4 -51 13 -99 38 -113 59 -292
146 -300 146 -4 0 2 -6 13 -14z"/>
<path d="M2853 2195 c0 -22 2 -30 4 -17 2 12 2 30 0 40 -3 9 -5 -1 -4 -23z"/>
<path d="M2210 2140 c0 -14 -7 -33 -15 -44 -15 -20 -6 -29 88 -84 32 -18 36
-19 28 -4 -5 9 -19 26 -31 37 -13 11 -33 43 -46 70 -19 40 -24 45 -24 25z"/>
<path d="M2756 2081 c-14 -26 -37 -63 -53 -81 l-28 -34 27 18 c31 20 72 80 82
119 10 41 -1 33 -28 -22z"/>
<path d="M3720 2122 c0 -4 14 -8 30 -7 17 0 30 3 30 7 0 5 -13 8 -30 8 -16 0
-30 -4 -30 -8z"/>
<path d="M7015 2120 c3 -5 8 -10 11 -10 2 0 4 5 4 10 0 6 -5 10 -11 10 -5 0
-7 -4 -4 -10z"/>
<path d="M2615 2110 c-3 -5 -1 -10 4 -10 6 0 11 5 11 10 0 6 -2 10 -4 10 -3 0
-8 -4 -11 -10z"/>
<path d="M2636 2056 c-37 -69 -57 -79 -158 -84 -83 -4 -89 -6 -67 -18 13 -8
48 -21 77 -30 43 -13 59 -14 82 -4 30 12 98 110 77 110 -8 0 -8 3 1 9 8 4 12
18 10 30 -3 20 -5 19 -22 -13z"/>
<path d="M6021 2074 c0 -11 3 -14 6 -6 3 7 2 16 -1 19 -3 4 -6 -2 -5 -13z"/>
<path d="M2095 2010 c-15 -29 -15 -31 9 -39 13 -6 40 -13 59 -16 32 -6 35 -4
41 21 6 23 3 32 -14 46 -36 29 -77 23 -95 -12z"/>
<path d="M2758 1977 l-88 -62 50 -14 c27 -7 56 -11 64 -8 18 7 69 111 64 132
-2 10 -28 -3 -90 -48z"/>
<path d="M3820 2020 c0 -5 5 -10 11 -10 5 0 7 5 4 10 -3 6 -8 10 -11 10 -2 0
-4 -4 -4 -10z"/>
<path d="M4752 1958 c-6 -35 -18 -112 -26 -173 -9 -60 -25 -174 -36 -251 -11
-78 -20 -155 -20 -170 1 -27 1 -28 12 -9 11 19 17 49 19 103 1 12 4 22 8 22 3
0 7 10 7 23 1 12 9 81 18 152 19 154 24 199 30 282 3 35 7 67 11 73 3 5 2 10
-3 10 -6 0 -15 -28 -20 -62z"/>
<path d="M5775 2000 c3 -5 8 -10 11 -10 2 0 4 5 4 10 0 6 -5 10 -11 10 -5 0
-7 -4 -4 -10z"/>
<path d="M5001 1925 c1 -50 3 -63 9 -45 11 35 11 82 0 100 -7 10 -9 -6 -9 -55z"/>
<path d="M4390 1970 c-8 -5 -11 -12 -8 -16 4 -3 14 1 23 10 18 17 9 21 -15 6z"/>
<path d="M3710 1936 c0 -2 7 -7 16 -10 8 -3 12 -2 9 4 -6 10 -25 14 -25 6z"/>
<path d="M3915 1890 c3 -5 10 -10 16 -10 5 0 9 5 9 10 0 6 -7 10 -16 10 -8 0
-12 -4 -9 -10z"/>
<path d="M3890 1870 c0 -14 15 -19 29 -11 9 6 7 10 -8 14 -12 3 -21 1 -21 -3z"/>
<path d="M7400 1825 c0 -8 2 -15 4 -15 2 0 6 7 10 15 3 8 1 15 -4 15 -6 0 -10
-7 -10 -15z"/>
<path d="M3602 1810 c-10 -17 -10 -20 3 -20 8 0 15 9 15 20 0 11 -1 20 -3 20
-1 0 -8 -9 -15 -20z"/>
<path d="M3937 1803 c3 -7 11 -13 19 -13 20 0 17 -18 -3 -23 -14 -4 -14 -5 3
-6 15 -1 23 6 26 23 4 20 0 25 -23 28 -19 3 -25 0 -22 -9z"/>
<path d="M3200 1789 c0 -5 5 -7 10 -4 6 3 10 8 10 11 0 2 -4 4 -10 4 -5 0 -10
-5 -10 -11z"/>
<path d="M8195 1770 c-3 -5 -2 -10 4 -10 5 0 13 5 16 10 3 6 2 10 -4 10 -5 0
-13 -4 -16 -10z"/>
<path d="M4645 1750 c3 -5 8 -10 11 -10 2 0 4 5 4 10 0 6 -5 10 -11 10 -5 0
-7 -4 -4 -10z"/>
<path d="M3870 1740 c0 -5 7 -10 15 -10 8 0 15 5 15 10 0 6 -7 10 -15 10 -8 0
-15 -4 -15 -10z"/>
<path d="M3960 1741 c0 -5 5 -13 10 -16 6 -3 10 -2 10 4 0 5 -4 13 -10 16 -5
3 -10 2 -10 -4z"/>
<path d="M4588 1738 c9 -9 15 -9 24 0 9 9 7 12 -12 12 -19 0 -21 -3 -12 -12z"/>
<path d="M3945 1700 c3 -5 10 -10 16 -10 5 0 9 5 9 10 0 6 -7 10 -16 10 -8 0
-12 -4 -9 -10z"/>
<path d="M3967 1623 c7 -5 14 -20 16 -33 2 -14 8 -25 13 -26 5 0 26 -8 48 -17
21 -9 45 -17 53 -17 7 0 24 -7 37 -15 13 -9 47 -18 75 -22 28 -3 51 -9 51 -13
0 -5 8 -6 19 -3 11 3 27 -4 39 -17 12 -13 25 -19 33 -15 8 5 10 4 5 -3 -4 -8
0 -12 12 -12 18 0 18 4 9 45 -7 32 -15 45 -28 45 -9 0 -86 22 -169 50 -150 49
-238 71 -213 53z"/>
<path d="M4555 1520 c3 -5 10 -10 16 -10 5 0 9 5 9 10 0 6 -7 10 -16 10 -8 0
-12 -4 -9 -10z"/>
<path d="M8030 1515 c0 -4 18 -26 39 -48 22 -23 48 -52 58 -64 15 -19 34 -25
108 -33 60 -6 91 -6 95 1 4 5 14 7 23 3 9 -3 22 -2 29 2 7 5 38 10 68 11 30 2
56 7 58 12 2 5 11 7 21 4 10 -3 22 0 25 6 4 6 37 11 76 11 51 0 69 4 74 15 3
8 1 15 -4 15 -5 0 -10 8 -12 18 -3 16 -22 17 -218 17 -214 0 -324 9 -347 28
-19 14 -16 -1 5 -31 34 -49 35 -57 5 -29 -16 15 -35 27 -42 27 -7 0 -9 5 -6
10 3 6 1 11 -4 11 -21 3 -26 4 -38 12 -7 5 -13 5 -13 2z"/>
<path d="M4530 1480 c0 -5 5 -10 11 -10 5 0 7 5 4 10 -3 6 -8 10 -11 10 -2 0
-4 -4 -4 -10z"/>
<path d="M4572 1459 c-14 -22 -7 -25 14 -5 8 8 11 17 6 20 -4 2 -13 -4 -20
-15z"/>
</g>
</svg>
